<?xml version="1.0" encoding="UTF-8"?>
<svg width="64px" height="64px" viewBox="0 0 64 64" version="1.1" xmlns="http://www.w3.org/2000/svg" xmlns:xlink="http://www.w3.org/1999/xlink">
    <!-- Generator: Sketch 45.2 (43514) - http://www.bohemiancoding.com/sketch -->
    <title>icon-bitcoin</title>
    <desc>Created with Sketch.</desc>
    <defs>
        <filter x="-3.6%" y="-12.7%" width="107.2%" height="135.4%" filterUnits="objectBoundingBox" id="filter-1">
            <feOffset dx="0" dy="4" in="SourceAlpha" result="shadowOffsetOuter1"></feOffset>
            <feGaussianBlur stdDeviation="4" in="shadowOffsetOuter1" result="shadowBlurOuter1"></feGaussianBlur>
            <feColorMatrix values="0 0 0 0 0   0 0 0 0 0   0 0 0 0 0  0 0 0 0.1 0" type="matrix" in="shadowBlurOuter1" result="shadowMatrixOuter1"></feColorMatrix>
            <feMerge>
                <feMergeNode in="shadowMatrixOuter1"></feMergeNode>
                <feMergeNode in="SourceGraphic"></feMergeNode>
            </feMerge>
        </filter>
    </defs>
    <g id="Page-1" stroke="none" stroke-width="1" fill="none" fill-rule="evenodd">
        <g id="Whipers---Home" transform="translate(-487.000000, -626.000000)">
            <g id="hero-section">
                <g id="socials" filter="url(#filter-1)" transform="translate(155.000000, 599.000000)">
                    <g id="icon-bitcoin" transform="translate(340.000000, 31.000000)">
                        <circle id="Oval-2" fill="#FDFDFD" cx="24.1052342" cy="24.0747701" r="23.8885443"></circle>
                        <g id="bitcointalk" transform="translate(14.000000, 10.000000)" fill-rule="nonzero" fill="#FE931F">
                            <path d="M18.2960679,14.2259792 C17.6836214,13.4114342 16.7592403,12.8525879 15.5238032,12.5476827 C17.096657,11.7217148 17.7890642,10.3210841 17.5992673,8.34315456 C17.535123,7.62614412 17.34269,7.00491081 17.020211,6.47769726 C16.6982793,5.9511684 16.248922,5.51420089 15.7136001,5.20711258 C15.1533557,4.88179043 14.5511037,4.63491734 13.9237101,4.47340704 C13.1956704,4.29098517 12.4539252,4.16843852 11.7058984,4.10699362 L11.7058984,0 L9.26665698,0 L9.26665698,3.99276402 C8.84488613,3.99276402 8.19992821,4.00330829 7.3335406,4.02527552 L7.3335406,0 L4.8942992,0 L4.8942992,4.10699362 C4.54633825,4.11753789 4.03318372,4.12368872 3.35835037,4.12368872 L0,4.10611493 L0,6.77996636 L1.75737853,6.77996636 C2.56050052,6.77996636 3.03147796,7.14901585 3.1676748,7.88711484 L3.1676748,12.5652565 C3.27311751,12.5652565 3.35835037,12.5705286 3.421616,12.5810729 L3.1676748,12.5810729 L3.1676748,19.13258 C3.08332063,19.6861543 2.77753676,19.9638201 2.24944452,19.9638201 L0.492065988,19.9638201 L0,22.9460914 L3.16855349,22.9460914 C3.36889464,22.9460914 3.6588621,22.9487275 4.03933455,22.9539997 C4.419807,22.9592718 4.70450232,22.9627865 4.8942992,22.9627865 L4.8942992,27.1172294 L7.33441929,27.1172294 L7.33441929,23.0111145 C7.77815737,23.0216587 8.4222366,23.0269309 9.26753567,23.0269309 L9.26753567,27.1172294 L11.7058984,27.1172294 L11.7058984,22.9619079 C12.572286,22.9179734 13.3402604,22.837134 14.0107003,22.7176322 C14.6811402,22.5981305 15.3234621,22.410091 15.9350298,22.1552711 C16.5474762,21.9004512 17.0597521,21.5823657 17.4718573,21.2018933 C17.8839626,20.8214208 18.2240153,20.3381417 18.4937729,19.752056 C18.7626519,19.1642129 18.9339963,18.4858647 19.0078062,17.7134969 C19.1457604,16.2039087 18.9085143,15.0422815 18.2960679,14.2268579 L18.2960679,14.2259792 Z M7.38098982,6.95921897 C7.87486133,6.95423201 8.36869516,6.94603074 8.86245992,6.93461567 C9.08916175,6.92934354 9.39494561,6.94340257 9.7806902,6.97503538 C10.1664348,7.00754688 10.4906711,7.05148135 10.7551566,7.10596008 C11.0187634,7.15956013 11.3087308,7.25006512 11.6259377,7.374839 C11.9422658,7.49961287 12.1970857,7.65162611 12.3860039,7.83087872 C12.5766794,8.01013133 12.7374796,8.23859054 12.869283,8.51537766 C13.0010864,8.79216478 13.066988,9.11025029 13.066988,9.46875551 C13.066988,9.772782 13.0195388,10.0504478 12.9246404,10.2999956 C12.8306206,10.5495433 12.6873943,10.7586714 12.4975974,10.9273797 C12.3149627,11.0900789 12.1189029,11.2370503 11.9115117,11.3667243 C11.7102918,11.4923769 11.4545932,11.5925475 11.1426586,11.6689934 C10.8316026,11.7454394 10.5592089,11.8051903 10.3272349,11.848246 C10.095261,11.8921805 9.80441481,11.9220559 9.45645386,11.9378723 C9.10761422,11.9536888 8.84312876,11.9651117 8.66387615,11.9703838 C8.4184593,11.9758432 8.17295139,11.9758432 7.92753454,11.9703838 L7.38098982,11.961597 L7.38098982,6.95921897 L7.38098982,6.95921897 Z M14.0414544,18.0570644 C13.948773,18.2941036 13.817871,18.5143516 13.6539525,18.7090518 C13.4957884,18.8935766 13.2866604,19.0570128 13.0283257,19.197603 C12.7691124,19.339072 12.5186859,19.4533016 12.275289,19.5402919 C12.0327708,19.6281608 11.7392886,19.7028494 11.3965998,19.7687511 C11.0530323,19.8337741 10.7525205,19.8794659 10.4933072,19.9067053 C10.2349726,19.9339446 9.92567393,19.9559119 9.56629002,19.972607 C9.03363608,19.9989793 8.50014691,20.0042555 7.96707556,19.9884234 C7.65953432,19.9831512 7.46534399,19.9805152 7.38098982,19.9805152 L7.38098982,14.4720122 C7.46534399,14.4720122 7.71577043,14.46674 8.13314783,14.4553171 C8.55052523,14.4447728 8.89057798,14.4395007 9.15506344,14.4395007 C9.41867022,14.4395007 9.78332627,14.4553171 10.2481529,14.4887073 C10.7121008,14.5212188 11.1031175,14.5695467 11.4203244,14.6345697 C11.7366525,14.6995927 12.0828561,14.800642 12.4571777,14.9359601 C12.832378,15.072157 13.1364045,15.2373505 13.3683785,15.4332982 C13.6012311,15.6292459 13.7963001,15.8787937 13.9544642,16.1828202 C14.1126283,16.4868467 14.1917103,16.8348076 14.1917103,17.2258243 C14.1917103,17.5307295 14.1425037,17.8075166 14.0423331,18.0570644 L14.0414544,18.0570644 Z" id="Shape"></path>
                        </g>
                    </g>
                </g>
            </g>
        </g>
    </g>
</svg>