<?xml version="1.0" encoding="UTF-8"?>
<svg width="64px" height="64px" viewBox="0 0 64 64" version="1.1" xmlns="http://www.w3.org/2000/svg" xmlns:xlink="http://www.w3.org/1999/xlink">
    <!-- Generator: Sketch 45.2 (43514) - http://www.bohemiancoding.com/sketch -->
    <title>icon-slack</title>
    <desc>Created with Sketch.</desc>
    <defs>
        <filter x="-3.6%" y="-12.7%" width="107.2%" height="135.4%" filterUnits="objectBoundingBox" id="filter-1">
            <feOffset dx="0" dy="4" in="SourceAlpha" result="shadowOffsetOuter1"></feOffset>
            <feGaussianBlur stdDeviation="4" in="shadowOffsetOuter1" result="shadowBlurOuter1"></feGaussianBlur>
            <feColorMatrix values="0 0 0 0 0   0 0 0 0 0   0 0 0 0 0  0 0 0 0.1 0" type="matrix" in="shadowBlurOuter1" result="shadowMatrixOuter1"></feColorMatrix>
            <feMerge>
                <feMergeNode in="shadowMatrixOuter1"></feMergeNode>
                <feMergeNode in="SourceGraphic"></feMergeNode>
            </feMerge>
        </filter>
    </defs>
    <g id="Page-1" stroke="none" stroke-width="1" fill="none" fill-rule="evenodd">
        <g id="Whipers---Home" transform="translate(-283.000000, -626.000000)">
            <g id="hero-section">
                <g id="socials" filter="url(#filter-1)" transform="translate(155.000000, 599.000000)">
                    <g id="icon-slack" transform="translate(136.000000, 31.000000)">
                        <path d="M0,24 C0,10.7451653 10.8047942,0 24.1331849,0 C37.4615755,0 48.2663698,10.7451653 48.2663698,24 C48.2663698,37.2548347 37.4615755,48 24.1331849,48 C10.8047942,48 0,37.2548347 0,24 Z" id="back" fill="#FFFFFF"></path>
                        <g id="Group" transform="translate(11.245902, 11.200000)">
                            <path d="M16.6643719,1.58384262 C16.2737414,0.386308197 14.9823854,-0.269009836 13.7801537,0.120236066 C12.5777114,0.509272131 11.9197076,1.79535738 12.3105487,2.99268197 L18.2294222,21.1292328 C18.6358549,22.2478689 19.8492535,22.8765377 21.0139812,22.5426885 C22.2288546,22.1943607 22.9694513,20.9093246 22.5817705,19.721023 C22.5670218,19.6756984 16.6643719,1.58384262 16.6643719,1.58384262" id="Shape" fill="#DFA22F"></path>
                            <path d="M7.49319431,4.5515541 C7.10235313,3.35422951 5.81099705,2.69891148 4.60876539,3.08794754 C3.40632303,3.47698361 2.74831927,4.76306885 3.13916044,5.96060328 L9.05803387,24.0971541 C9.46446655,25.2157902 10.6778651,25.844459 11.8425928,25.5104 C13.0574663,25.162282 13.7980629,23.8772459 13.4103822,22.6887344 C13.3956335,22.6436197 7.49319431,4.5515541 7.49319431,4.5515541" id="Shape" fill="#3CB187"></path>
                            <path d="M24.1145843,16.6045377 C25.3170266,16.2155016 25.9748197,14.9294164 25.5841892,13.731882 C25.1935588,12.5345574 23.9022026,11.8792393 22.6999709,12.2682754 L4.48909003,18.1632 C3.36586939,18.5677639 2.73462403,19.7762098 3.06984145,20.9361836 C3.41959688,22.1460984 4.70989949,22.8836721 5.90307122,22.4975738 C5.94858156,22.4828852 24.1145843,16.6045377 24.1145843,16.6045377" id="Shape" fill="#CE1E5B"></path>
                            <path d="M8.28456867,21.7270557 C9.46994464,21.3434754 10.9977017,20.8491016 12.6371276,20.3186361 C12.2519753,19.1380984 11.7555753,17.6163672 11.222725,15.983423 L6.86995538,17.3924721 L8.28456867,21.7270557" id="Shape" fill="#392538"></path>
                            <path d="M17.455957,18.7591344 C19.1014932,18.2267803 20.6309358,17.731777 21.808516,17.3507148 C21.4233636,16.170177 20.926753,14.6480262 20.3939027,13.0146623 L16.041133,14.4237115 L17.455957,18.7591344" id="Shape" fill="#BB242A"></path>
                            <path d="M21.13471,7.47058361 C22.3369417,7.08154754 22.9949454,5.7954623 22.604315,4.59792787 C22.2136845,3.40060328 20.9223284,2.74528525 19.719886,3.13432131 L1.5090051,9.0292459 C0.385784466,9.43380984 -0.245460897,10.6422557 0.0899672131,11.8022295 C0.439511959,13.0121443 1.72981457,13.749718 2.92319699,13.3636197 C2.96849664,13.3489311 21.13471,7.47058361 21.13471,7.47058361" id="Shape" fill="#72C5CD"></path>
                            <path d="M5.30385165,12.5933115 C6.48922762,12.2097311 8.01740608,11.7151475 9.65704273,11.184682 C9.12250685,9.54565246 8.62547487,8.02245246 8.24285085,6.84946885 L3.88902768,8.25872787 L5.30385165,12.5933115" id="Shape" fill="#248C73"></path>
                            <path d="M14.4750293,9.6256 C16.1209868,9.09303607 17.6506401,8.59803279 18.828431,8.21676066 C18.2936845,6.57752131 17.7966525,5.05390164 17.4138178,3.8807082 L13.0602054,5.28996721 L14.4750293,9.6256" id="Shape" fill="#62803A"></path>
                        </g>
                    </g>
                </g>
            </g>
        </g>
    </g>
</svg>