<?xml version="1.0" encoding="UTF-8"?>
<svg width="64px" height="64px" viewBox="0 0 64 64" version="1.1" xmlns="http://www.w3.org/2000/svg" xmlns:xlink="http://www.w3.org/1999/xlink">
    <!-- Generator: Sketch 45.2 (43514) - http://www.bohemiancoding.com/sketch -->
    <title>icon-git</title>
    <desc>Created with Sketch.</desc>
    <defs>
        <filter x="-3.6%" y="-12.7%" width="107.2%" height="135.4%" filterUnits="objectBoundingBox" id="filter-1">
            <feOffset dx="0" dy="4" in="SourceAlpha" result="shadowOffsetOuter1"></feOffset>
            <feGaussianBlur stdDeviation="4" in="shadowOffsetOuter1" result="shadowBlurOuter1"></feGaussianBlur>
            <feColorMatrix values="0 0 0 0 0   0 0 0 0 0   0 0 0 0 0  0 0 0 0.1 0" type="matrix" in="shadowBlurOuter1" result="shadowMatrixOuter1"></feColorMatrix>
            <feMerge>
                <feMergeNode in="shadowMatrixOuter1"></feMergeNode>
                <feMergeNode in="SourceGraphic"></feMergeNode>
            </feMerge>
        </filter>
    </defs>
    <g id="Page-1" stroke="none" stroke-width="1" fill="none" fill-rule="evenodd">
        <g id="Whipers---Home" transform="translate(-352.000000, -626.000000)">
            <g id="hero-section">
                <g id="socials" filter="url(#filter-1)" transform="translate(155.000000, 599.000000)">
                    <g id="icon-git" transform="translate(205.000000, 31.000000)">
                        <circle id="Oval-2" fill="#FDFDFD" cx="24.1052342" cy="24.0747701" r="23.8885443"></circle>
                        <path d="M24.0432397,0.176528926 C10.8146777,0.176528926 0.0876694215,10.9015537 0.0876694215,24.1320992 C0.0876694215,34.7162975 6.95166942,43.6958678 16.4699504,46.8634711 C17.6671736,47.0852231 18.1067107,46.3438017 18.1067107,45.7110744 C18.1067107,45.1398347 18.0844959,43.2527603 18.0741818,41.2510413 C11.409719,42.7001653 10.003438,38.424595 10.003438,38.424595 C8.91371901,35.6556694 7.34360331,34.919405 7.34360331,34.919405 C5.1701157,33.432595 7.50743802,33.4631405 7.50743802,33.4631405 C9.91299174,33.6321322 11.1796364,35.9317686 11.1796364,35.9317686 C13.3162314,39.5940496 16.7837355,38.5352727 18.1507438,37.9231736 C18.3657521,36.374876 18.9865785,35.3180826 19.6716694,34.7198678 C14.3508099,34.1141157 8.75742149,32.0600331 8.75742149,22.8809256 C8.75742149,20.2655207 9.69322314,18.1285289 11.2256529,16.4509091 C10.9769256,15.8475372 10.1569587,13.4110413 11.457719,10.1113388 C11.457719,10.1113388 13.4693554,9.46750413 18.0472066,12.566876 C19.9580826,12.0360992 22.007405,11.7699174 24.0432397,11.7607934 C26.0790744,11.7699174 28.1299835,12.0360992 30.0444298,12.566876 C34.6167273,9.46750413 36.6255868,10.1113388 36.6255868,10.1113388 C37.9295207,13.4110413 37.109157,15.8475372 36.8604298,16.4509091 C38.3964298,18.1285289 39.3258843,20.2655207 39.3258843,22.8809256 C39.3258843,32.0818512 33.7217851,34.1077686 28.387438,34.7008264 C29.2466777,35.4442314 30.0122975,36.9020826 30.0122975,39.1370579 C30.0122975,42.3423471 29.9845289,44.9220496 29.9845289,45.7110744 C29.9845289,46.348562 30.4157355,47.0955372 31.6300165,46.8602975 C41.1431405,43.689124 47.9984132,34.7127273 47.9984132,24.1320992 C47.9984132,10.9015537 37.2729917,0.176528926 24.0432397,0.176528926" id="Fill-4" fill="#373730"></path>
                        <path d="M9.1608595,34.5715041 C9.10809917,34.6905124 8.9208595,34.7262149 8.75028099,34.6444959 C8.57652893,34.5663471 8.47894215,34.4040992 8.53527273,34.2846942 C8.58684298,34.1621157 8.77447934,34.128 8.94783471,34.2101157 C9.12198347,34.2882645 9.22115702,34.4520992 9.1608595,34.5715041" id="Fill-5" fill="#161514"></path>
                        <path d="M10.1311736,35.653686 C10.0169256,35.7596033 9.79358678,35.7104132 9.64204959,35.5430083 C9.48535537,35.376 9.456,35.1526612 9.57183471,35.045157 C9.68965289,34.9392397 9.90624793,34.9888264 10.0633388,35.1558347 C10.2200331,35.3248264 10.2505785,35.5465785 10.1311736,35.653686" id="Fill-6" fill="#161514"></path>
                        <path d="M11.0757025,37.0333884 C10.9289256,37.1353388 10.6889256,37.0397355 10.540562,36.8267107 C10.3937851,36.613686 10.3937851,36.3582149 10.5437355,36.2558678 C10.6924959,36.1535207 10.9289256,36.2455537 11.0792727,36.4569917 C11.2256529,36.6735868 11.2256529,36.9290579 11.0757025,37.0333884" id="Fill-7" fill="#161514"></path>
                        <path d="M12.369719,38.366281 C12.2384132,38.5110744 11.9587438,38.4721983 11.7540496,38.2746446 C11.544595,38.0814545 11.486281,37.8073388 11.6179835,37.6625455 C11.750876,37.5173554 12.0321322,37.5582149 12.2384132,37.7541818 C12.446281,37.9469752 12.5097521,38.2230744 12.369719,38.366281" id="Fill-8" fill="#161514"></path>
                        <path d="M14.154843,39.1402314 C14.0969256,39.3278678 13.8275702,39.413157 13.5562314,39.3334215 C13.2852893,39.2513058 13.1079669,39.0315372 13.1627107,38.8419174 C13.2190413,38.6530909 13.4895868,38.5642314 13.7629091,38.6495207 C14.0334545,38.7312397 14.2111736,38.9494215 14.154843,39.1402314" id="Fill-9" fill="#161514"></path>
                        <path d="M16.1153058,39.2838347 C16.1220496,39.4813884 15.8919669,39.6452231 15.6071405,39.6487934 C15.3207273,39.6551405 15.0890579,39.4952727 15.0858843,39.3008926 C15.0858843,39.1013554 15.3108099,38.9391074 15.5972231,38.9343471 C15.8820496,38.9287934 16.1153058,39.0874711 16.1153058,39.2838347" id="Fill-10" fill="#161514"></path>
                        <path d="M17.9397025,38.9732231 C17.9738182,39.1660165 17.7758678,39.3639669 17.4930248,39.4167273 C17.2149421,39.4675041 16.9574876,39.3484959 16.9221818,39.1572893 C16.8876694,38.9597355 17.0891901,38.7617851 17.366876,38.7106116 C17.6501157,38.6614215 17.9036033,38.7772562 17.9397025,38.9732231" id="Fill-11" fill="#161514"></path>
                    </g>
                </g>
            </g>
        </g>
    </g>
</svg>