<?xml version="1.0" encoding="UTF-8"?>
<svg width="64px" height="64px" viewBox="0 0 64 64" version="1.1" xmlns="http://www.w3.org/2000/svg" xmlns:xlink="http://www.w3.org/1999/xlink">
    <!-- Generator: Sketch 45.2 (43514) - http://www.bohemiancoding.com/sketch -->
    <title>icon-we</title>
    <desc>Created with Sketch.</desc>
    <defs>
        <filter x="-3.6%" y="-12.7%" width="107.2%" height="135.4%" filterUnits="objectBoundingBox" id="filter-1">
            <feOffset dx="0" dy="4" in="SourceAlpha" result="shadowOffsetOuter1"></feOffset>
            <feGaussianBlur stdDeviation="4" in="shadowOffsetOuter1" result="shadowBlurOuter1"></feGaussianBlur>
            <feColorMatrix values="0 0 0 0 0   0 0 0 0 0   0 0 0 0 0  0 0 0 0.1 0" type="matrix" in="shadowBlurOuter1" result="shadowMatrixOuter1"></feColorMatrix>
            <feMerge>
                <feMergeNode in="shadowMatrixOuter1"></feMergeNode>
                <feMergeNode in="SourceGraphic"></feMergeNode>
            </feMerge>
        </filter>
    </defs>
    <g id="Page-1" stroke="none" stroke-width="1" fill="none" fill-rule="evenodd">
        <g id="Whipers---Home" transform="translate(-420.000000, -626.000000)">
            <g id="hero-section">
                <g id="socials" filter="url(#filter-1)" transform="translate(155.000000, 599.000000)">
                    <g id="icon-we" transform="translate(273.000000, 31.000000)">
                        <circle id="Oval-2" fill="#71D400" cx="23.8885443" cy="23.8885443" r="23.8885443"></circle>
                        <g id="Group-8" transform="translate(10.000000, 12.000000)" fill-rule="nonzero" fill="#FFFFFF">
                            <path d="M19.9549841,7.99693783 C17.3545256,8.13294902 15.0932341,8.92213653 13.257351,10.7051197 C11.4024582,12.5064885 10.5557224,14.7138481 10.7871678,17.4501999 C9.77074113,17.3241879 8.84495943,17.1854888 7.91391518,17.1070001 C7.59236177,17.0799054 7.21077217,17.1183971 6.93840763,17.2722564 C6.03432059,17.7829704 5.16760849,18.3595933 4.1403345,19.0024479 C4.32882021,18.1489641 4.45082578,17.4016014 4.66680571,16.6827312 C4.82564922,16.1543841 4.75208073,15.8603204 4.26588424,15.5162604 C1.14421711,13.3098685 -0.171638721,10.0078607 0.813105169,6.60833338 C1.72417316,3.46341043 3.96151471,1.55613562 7.0015584,0.561909894 C11.1509291,-0.794976521 15.8140979,0.589112133 18.3372289,3.88714176 C19.2485117,5.07844933 19.8073101,6.4155523 19.9549841,7.99693783 Z M7.98673188,6.93766326 C8.01068192,6.31588243 7.47250419,5.75570983 6.83326374,5.73700157 C6.1787726,5.71775572 5.64048747,6.21847046 5.6213704,6.86412045 C5.60203853,7.51847946 6.10198213,8.04284832 6.76119883,8.05962125 C7.41472338,8.07617913 7.96256705,7.57481928 7.98673188,6.93766326 Z M14.2310327,5.73657149 C13.5894295,5.74839855 13.047278,6.29545387 13.0586623,6.91970764 C13.0703688,7.56675537 13.60221,8.07295357 14.2619637,8.06499718 C14.9234358,8.0570408 15.4250978,7.54546666 15.4188686,6.88476405 C15.4133913,6.23621105 14.8839129,5.72463691 14.2310327,5.73657149 Z" id="Shape"></path>
                            <path d="M25.7972895,24.2268906 C24.9738593,23.8598217 24.2185203,23.3091107 23.4143146,23.2250311 C22.6132234,23.141274 21.7711057,23.6039271 20.9329619,23.689727 C18.3799739,23.9512126 16.092799,23.238901 14.2068679,21.4929043 C10.6200545,18.1716506 11.1325638,13.0791333 15.2823642,10.3574041 C18.9705624,7.93844763 24.3795118,8.74483813 26.9798629,12.1012504 C29.249102,15.0300607 28.9824296,18.9179381 26.2121729,21.3783968 C25.4105447,22.0904934 25.1220703,22.6764705 25.6364054,23.6152166 C25.7313464,23.7885368 25.7421937,24.0079825 25.7972895,24.2268906 L25.7972895,24.2268906 Z M16.4241258,15.1416652 C16.9483416,15.1422028 17.3799793,14.7314812 17.3998481,14.2131334 C17.420791,13.6643578 16.979917,13.2040701 16.4309993,13.2018122 C15.887559,13.1993393 15.4322935,13.6660781 15.4511958,14.2066823 C15.4690241,14.7232023 15.9036689,15.1410201 16.4241258,15.1416652 Z M22.466516,13.2039626 C21.9578731,13.2004144 21.5256984,13.6172646 21.5049704,14.1317417 C21.4829535,14.6819151 21.9100804,15.1337088 22.4539503,15.1351065 C22.9799919,15.1368268 23.3956271,14.7385774 23.4147441,14.2145311 C23.43515,13.6630676 23.0078083,13.2077257 22.466516,13.2039626 L22.466516,13.2039626 Z" id="Shape"></path>
                        </g>
                    </g>
                </g>
            </g>
        </g>
    </g>
</svg>