<?xml version="1.0" encoding="UTF-8"?>
<svg width="215px" height="60px" viewBox="0 0 215 60" version="1.1" xmlns="http://www.w3.org/2000/svg" xmlns:xlink="http://www.w3.org/1999/xlink">
    <!-- Generator: Sketch 45.2 (43514) - http://www.bohemiancoding.com/sketch -->
    <title>logo</title>
    <desc>Created with Sketch.</desc>
    <defs>
        <filter x="-3.4%" y="-9.6%" width="106.7%" height="126.9%" filterUnits="objectBoundingBox" id="filter-1">
            <feOffset dx="0" dy="2" in="SourceAlpha" result="shadowOffsetOuter1"></feOffset>
            <feGaussianBlur stdDeviation="2" in="shadowOffsetOuter1" result="shadowBlurOuter1"></feGaussianBlur>
            <feColorMatrix values="0 0 0 0 0   0 0 0 0 0   0 0 0 0 0  0 0 0 0.2 0" type="matrix" in="shadowBlurOuter1" result="shadowMatrixOuter1"></feColorMatrix>
            <feMerge>
                <feMergeNode in="shadowMatrixOuter1"></feMergeNode>
                <feMergeNode in="SourceGraphic"></feMergeNode>
            </feMerge>
        </filter>
        <linearGradient x1="11.6920994%" y1="0%" x2="100%" y2="80.7095858%" id="linearGradient-2">
            <stop stop-color="#FB3194" offset="0%"></stop>
            <stop stop-color="#D9006F" offset="100%"></stop>
        </linearGradient>
    </defs>
    <g id="Page-1" stroke="none" stroke-width="1" fill="none" fill-rule="evenodd">
        <g id="Whipers---Home" transform="translate(-152.000000, -5446.000000)">
            <g id="footer" transform="translate(0.000000, 5401.000000)">
                <g id="logo" filter="url(#filter-1)" transform="translate(155.000000, 47.000000)">
                    <path d="M133.902374,20.1655499 C133.515448,21.8117482 133.199797,23.6029339 132.954857,25.539671 C134.124121,24.1670868 135.090306,22.6720815 135.853976,21.0540908 C136.617646,19.4372284 136.999481,17.9709949 136.999481,16.6542619 C136.999481,16.0523107 136.933296,15.5919619 136.801493,15.271523 C136.669689,14.9522124 136.480751,14.7925571 136.235811,14.7925571 C135.896402,14.7925571 135.519092,15.2766004 135.104448,16.245251 C134.689803,17.2139016 134.288735,18.5204799 133.902374,20.1655499 Z M198.788816,31.5427454 C199.556254,30.8381769 200.100421,30.117281 200.421318,29.3800576 C201.405324,27.1194121 201.189649,27.6845797 201.728833,26.446601 C202.070316,25.6571653 202.780231,25.2624534 203.8586,25.2624534 C204.361838,25.2624534 204.712303,25.307307 204.910004,25.3970156 C205.107705,25.4867242 205.206554,25.6302558 205.206554,25.8276147 C205.206554,25.935265 205.170609,26.1057088 205.098717,26.3389512 C205.026826,26.5721936 204.927977,26.8054324 204.802167,27.0386748 C204.478657,27.6845767 204.316904,28.231791 204.316904,28.680334 C204.316904,28.9494598 204.41126,29.2454937 204.599974,29.5684447 C204.746022,29.8183798 204.953964,30.116668 205.223804,30.4633151 C205.302635,30.5645844 205.386748,30.6699809 205.476144,30.7795048 C206.051274,31.533057 206.487108,32.1744639 206.78366,32.7037447 C207.080211,33.2330254 207.228484,33.8116372 207.228484,34.4395974 C207.228484,35.1931497 207.053252,35.9063224 206.702782,36.5791369 C206.352313,37.2519514 205.862561,37.7946803 205.233513,38.2073398 C204.604464,38.6199994 203.885563,38.8263261 203.076787,38.8263261 C202.142201,38.8263261 201.427792,38.6110287 200.93354,38.1804274 C200.439288,37.7498261 200.192165,37.2654069 200.192165,36.7271553 C200.192165,36.2606706 200.362905,35.8569879 200.704388,35.5160953 C201.045871,35.1752026 201.549102,35.0047588 202.214096,35.0047588 C202.447743,35.0047588 202.721824,35.0271856 203.036348,35.0720399 C203.350872,35.1168942 203.589008,35.1482917 203.750764,35.1662335 C203.732791,34.6997487 203.629449,34.2601832 203.440734,33.8475236 C203.25202,33.434864 203.013884,33.0356667 202.726319,32.6499198 C202.438754,32.2641728 202.169166,31.9277706 201.917546,31.640703 C201.360389,32.6992645 200.715955,33.2954356 199.437311,33.8475236 C198.257768,34.3568224 195.820822,34.0576349 195.647691,33.7687537 C195.495848,33.682379 195.354245,33.571961 195.222831,33.4374739 C194.855138,33.061748 194.671291,32.5540104 194.671291,31.9142609 C194.671291,31.5571521 194.689959,31.1718356 194.727859,30.7577474 C194.765194,30.4570538 194.784427,30.2500097 194.784427,30.1371791 C194.784427,29.9871144 194.751052,29.8742838 194.685433,29.7986873 C194.619248,29.723655 194.538922,29.6858567 194.445019,29.6858567 C194.180845,29.6858567 193.822769,30.0012182 193.370223,30.6308129 C192.917678,31.2609718 192.465133,32.0930974 192.012587,33.1271898 C191.560042,34.1618463 191.192349,35.252354 190.909508,36.3992769 C190.701903,37.3019217 190.466014,37.9038729 190.202406,38.2045664 C189.938233,38.5058241 189.504355,38.6558888 188.901338,38.6558888 C188.18462,38.6558888 187.680032,38.2801629 187.38814,37.5275829 C187.292384,37.2813597 187.212335,36.9867539 187.147972,36.6437455 C186.713091,36.9690157 186.226947,37.2824992 185.689454,37.584111 C184.416671,38.2988928 183.054509,38.6560016 181.602405,38.6560016 C179.622519,38.6560016 178.085562,38.1200563 176.992099,37.0481657 C176.794101,36.8541743 176.614039,36.6472481 176.451905,36.4273872 C175.959074,36.9087013 175.446362,37.3318459 174.913558,37.6967159 C173.980184,38.3364654 172.919531,38.6557759 171.731599,38.6557759 C170.73204,38.6557759 169.921418,38.2992313 169.299168,37.5838853 C168.224373,38.2800501 167.10206,38.6371589 165.933362,38.6557759 C165.687856,42.2849719 165.131791,45.3172941 164.264601,47.7527424 C163.396846,50.1881907 162.124062,51.4056328 160.44625,51.4056328 C159.428023,51.4056328 158.67397,51.0394975 158.183524,50.3060987 C157.693078,49.5721357 157.448137,48.5566604 157.448137,47.2591086 C157.448137,45.4160208 157.872399,43.2677264 158.720921,40.8142252 C159.021254,39.9454144 159.379415,39.0455061 159.795454,38.1144499 C159.262455,38.2311446 158.678193,38.2990023 158.042669,38.3177355 C157.28805,38.9569208 156.392575,39.2762314 155.355681,39.2762314 C154.374789,39.2762314 153.625827,39.0511343 153.107096,38.599812 C152.588366,38.1479255 152.329284,37.6407519 152.329284,37.076599 C152.329284,36.5880425 152.50804,36.1649278 152.866682,35.8072548 C153.224758,35.450146 153.752539,35.2713095 154.45059,35.2713095 C154.695531,35.2713095 154.982897,35.2950039 155.313255,35.3418286 C155.643047,35.3892175 155.893079,35.4219384 156.062783,35.4399913 C156.04355,34.9514348 155.935505,34.491086 155.737516,34.0578165 C155.539528,33.6262395 155.289496,33.2070738 154.987988,32.8031403 C154.68648,32.3986427 154.403639,32.0460471 154.139465,31.7453535 C153.555116,32.8544782 152.974727,33.77574 152.399994,34.509703 C152.295262,34.6432172 152.188824,34.7754786 152.080676,34.9064874 C152.014189,35.0288472 151.936854,35.1409364 151.848681,35.2427634 C149.981932,37.5185564 148.237935,38.6558888 146.616126,38.6558888 C145.390294,38.6558888 144.499345,38.2237476 143.94328,37.358337 C143.796431,37.1299437 143.668953,36.8818782 143.560856,36.6141299 C143.118904,37.0190201 142.671181,37.3799362 142.217894,37.6966031 C141.303187,38.3363525 140.261767,38.6562273 139.092503,38.6562273 C138.130844,38.6562273 137.404509,38.378664 136.914629,37.8241017 C136.424183,37.2695393 136.179243,36.4656213 136.179243,35.4123478 C136.179243,34.885993 136.311047,33.9455501 136.57522,32.591583 C136.82016,31.4068618 136.942913,30.58884 136.942913,30.1375176 C136.942913,29.8368241 136.838828,29.6856311 136.631788,29.6856311 C136.386848,29.6856311 136.037822,30.0009926 135.585277,30.6311514 C135.132732,31.2613103 134.680186,32.0934359 134.227641,33.1275283 C133.775096,34.1616207 133.407403,35.2521283 133.124562,36.3996154 C132.766485,37.9042114 131.880062,38.6562273 130.465858,38.6562273 C129.900176,38.6562273 129.527958,38.4542605 129.348637,38.0491987 C129.169316,37.6458293 129.079938,36.9169437 129.079938,35.863106 C129.079938,35.2617189 129.089555,34.7821889 129.108222,34.4250801 L129.136506,32.1684682 C129.136506,31.609039 129.14759,31.0450408 129.169757,30.4764738 C128.122502,30.4660997 127.154129,30.387003 126.264429,30.2391838 C124.495279,33.6830209 120.29273,38.9508279 114.660777,38.9508279 C112.436901,38.9508279 110.625665,37.4761994 109.227693,34.5269424 C106.889403,37.4761994 104.23038,38.9508279 101.249999,38.9508279 C99.2099347,38.9508279 97.5875119,38.4426579 96.3839804,37.4250707 C95.180449,36.4074835 94.5789959,34.8012919 94.5789959,32.606496 C94.5789959,32.0808674 94.8709695,30.6916613 95.4555419,28.4401249 C96.0401143,26.1879651 96.5046462,24.336106 96.8485123,22.8845478 C97.1930036,21.4323661 97.3643115,20.2832159 97.3643115,19.4377206 C97.3643115,17.5858616 96.8941527,16.6599321 95.9550856,16.6599321 C95.6337271,16.6599321 95.3417535,16.7515897 95.0779144,16.9342815 C94.8140753,17.1175969 94.5502362,17.3115121 94.2870223,17.5172742 C94.0231832,17.7236598 93.7537172,17.917575 93.4792495,18.1008904 C93.2035314,18.2829587 92.888425,18.3752399 92.5333051,18.3752399 C92.17756,18.3752399 92,18.0665967 92,17.4486868 C92,16.1916674 92.5851976,15.1622333 93.7537172,14.3628786 C94.8765964,13.5392066 96.2295533,13.1283059 97.8113374,13.1283059 C99.3937468,13.1283059 99.985331,13.6882283 100.718704,14.808073 C101.31453,15.6997088 101.612756,16.9112112 101.612756,18.4432037 C101.612756,19.1060071 101.486463,19.9633493 101.234503,21.0152302 C99.9278115,26.4567029 98.6969052,30.7931613 98.6743976,32.8962995 C98.6969052,33.9020398 99.1214236,34.588537 99.9467023,34.9545442 C100.267436,35.0910954 100.645688,35.1596828 101.08146,35.1596828 C103.121524,35.1596828 106.179163,33.3952508 107.989775,30.9946928 C107.073215,27.7941566 106.61431,24.1590259 106.61431,20.0893006 C106.61431,18.5803785 106.975682,17.3514175 107.697801,16.4030412 C108.419295,15.4540413 109.594692,14.9795414 111.222116,14.9795414 C112.436901,14.9795414 113.359713,15.3231018 113.989926,16.008352 C114.620139,16.6942257 114.93587,17.597085 114.93587,18.7175532 C114.93587,21.0270771 114.328165,23.873453 113.11338,27.256681 C112.70074,28.399596 112.219328,29.5312877 111.669142,30.6517559 C112.6551,33.3035931 113.961166,34.6298235 115.589216,34.6298235 C117.194218,34.6298235 119.581844,33.6840424 121.074811,31.7924803 C121.599755,30.9248519 122.099722,29.9690024 122.574712,28.9247016 C121.424681,28.2093556 120.556926,27.2835806 119.972011,26.1462483 C119.387662,25.0077876 119.09577,23.696132 119.09577,22.2112814 C119.09577,20.7253025 119.326568,19.4700621 119.78873,18.4455604 C120.250892,17.4199303 120.882758,16.6538106 121.683764,16.1460729 C122.485334,15.6383353 123.376283,15.3844664 124.356609,15.3844664 C125.563208,15.3844664 126.520342,15.8171717 127.227444,16.6820182 C127.934546,17.5474289 128.288097,18.7315859 128.288097,20.236746 C128.288097,22.3613461 127.825935,24.721762 126.902177,27.3163015 C127.629944,27.4448109 128.454905,27.5242088 129.37706,27.5552287 C129.525323,26.1030082 129.742121,24.6225364 130.027455,23.1138133 C130.62142,19.9731738 131.498227,17.3363228 132.657874,15.2010039 C133.817522,13.0673774 135.207967,12 136.829777,12 C137.696967,12 138.399543,12.3712126 138.936941,13.1136379 C139.474338,13.8571915 139.743037,14.8207648 139.743037,16.0049218 C139.743037,17.9044249 139.186972,19.8750111 138.074276,21.9149882 C136.96158,23.9555295 135.151399,26.3390757 132.643732,29.065627 C132.587164,30.0433041 132.55888,31.0497529 132.55888,32.0832812 C133.18113,30.4856 133.87409,29.1835349 134.63776,28.1765219 C135.40143,27.1712013 136.155484,26.4519063 136.900487,26.0186369 C137.64549,25.5870598 138.328833,25.3704251 138.951083,25.3704251 C140.176915,25.3704251 140.789548,25.9814028 140.789548,27.2039222 C140.789548,27.9373211 140.581943,29.2625164 140.167298,31.1812006 C139.808656,32.8172442 139.629901,33.8987254 139.629901,34.4250801 C139.629901,35.1776601 139.903125,35.553386 140.450139,35.553386 C140.827449,35.553386 141.274903,35.3226474 141.793633,34.8622986 C142.151733,34.5445014 142.592866,34.0895865 143.117032,33.4979252 C143.145919,32.721607 143.251743,31.7753055 143.434166,30.6590206 C143.650823,29.3332611 143.929138,28.0966379 144.268547,26.9497149 C144.438251,26.3483278 144.664524,25.9342396 144.947365,25.7085784 C145.230206,25.4834814 145.682751,25.3700866 146.305001,25.3700866 C147.26666,25.3700866 147.747489,25.6905255 147.747489,26.3297108 C147.747489,26.7996502 147.568168,27.8901579 147.210091,29.6012338 C146.757546,31.6699827 146.531274,33.0707745 146.531274,33.8047375 C146.531274,34.3688904 146.606509,34.8010316 146.757546,35.1017251 C146.908583,35.4029828 147.16314,35.5530475 147.521216,35.5530475 C147.860625,35.5530475 148.284887,35.3183599 148.794,34.8478563 C148.941188,34.711994 149.10256,34.5533095 149.278116,34.3718165 C150.271231,33.143015 151.024647,32.1256272 151.53733,31.3222388 C151.858071,30.7767029 152.234815,30.0483814 152.668693,29.1361461 C153.102005,28.2239108 153.526267,27.2795187 153.941477,26.3007133 C154.299553,25.4736651 155.044556,25.060141 156.175919,25.060141 C156.7037,25.060141 157.071393,25.1069657 157.278999,25.2011792 C157.486038,25.2953928 157.590124,25.4460216 157.590124,25.6525016 C157.590124,25.7653322 157.552223,25.9436045 157.476987,26.1884469 C157.401186,26.4332893 157.297666,26.6775675 157.165862,26.9218457 C156.826453,27.5988293 156.656749,28.1725728 156.656749,28.6425123 C156.656749,28.9245887 156.755743,29.2343087 156.953732,29.5733646 C157.15172,29.9118564 157.457754,30.3349711 157.872964,30.8427088 C158.475981,31.6319588 158.933617,32.3049933 159.244742,32.8589915 C159.555867,33.4146821 159.71143,34.0205824 159.71143,34.6789489 C159.71143,34.8668118 159.692197,35.1302713 159.654862,35.4681989 C160.406959,35.177451 161.26555,34.4940419 162.230329,33.417667 C162.367981,33.1815922 162.508674,32.9438788 162.652409,32.7045264 C162.652409,29.9587939 162.633175,28.0502645 162.59584,26.9778097 C162.576607,26.432838 162.793829,26.0006968 163.246374,25.6802579 C163.69892,25.3609473 164.264601,25.201292 164.943419,25.201292 C165.339396,25.201292 165.626763,25.2808376 165.806084,25.4410571 C165.985405,25.6007123 166.083834,25.9155097 166.103067,26.3854491 C166.103067,26.8559527 166.112118,27.204035 166.131351,27.4291321 C166.734367,26.6776803 167.328899,26.1366577 167.913248,25.8071923 C168.497597,25.4788553 169.119847,25.3135585 169.779997,25.3135585 C170.835559,25.3135585 171.698224,25.7366732 172.367991,26.5829026 C173.037192,27.4291321 173.372076,28.5393851 173.372076,29.9114051 C173.372076,30.9088275 173.211988,31.876914 172.891247,32.817357 C172.570505,33.7578 172.127576,34.6130558 171.561895,35.3842529 C171.957872,35.4970835 172.287664,35.5529347 172.551838,35.5529347 C173.174087,35.5529347 173.768053,35.3272735 174.333735,34.8759511 C174.650171,34.6234863 175.016701,34.2769295 175.433425,33.836182 C175.378886,33.4597482 175.351622,33.0636117 175.351622,32.6477726 C175.351622,31.3502208 175.624847,30.1418052 176.171861,29.0230898 C176.718309,27.9043745 177.477454,27.0158336 178.448729,26.3574671 C179.419439,25.6991006 180.517993,25.3701994 181.743825,25.3701994 C182.837288,25.3701994 183.714094,25.6945874 184.374245,26.3433633 C185.034395,26.9921392 185.364188,27.8716537 185.364188,28.9807784 C185.364188,30.2783302 184.8975,31.3925323 183.964125,32.3233847 C183.030751,33.254237 181.451368,33.9921491 179.226542,34.537685 C179.697754,35.4025315 180.593228,35.8352368 181.913529,35.8352368 C182.762052,35.8352368 183.728236,35.5390565 184.812648,34.9466959 C185.604909,34.5136969 186.319491,33.9827304 186.955951,33.3537966 C187.005545,31.1151259 187.352014,28.9802842 187.996248,26.9497149 C188.165952,26.4047431 188.443702,26.0047587 188.830628,25.7508899 C189.216989,25.497021 189.758912,25.3700866 190.456963,25.3700866 C190.833707,25.3700866 191.097314,25.4174755 191.248917,25.5111249 C191.399388,25.6053384 191.47519,25.7841749 191.47519,26.0470702 C191.47519,26.3483278 191.333769,27.0253114 191.050929,28.0780208 C190.861991,28.8306009 190.71152,29.4884032 190.598383,30.0525562 C190.485247,30.6167091 190.390212,31.3128739 190.315542,32.1399221 C190.937792,30.5230597 191.635278,29.2063267 192.408565,28.1908514 C193.181286,27.1753761 193.935905,26.4515678 194.671291,26.0188625 C195.406677,25.5867213 196.075879,25.3700866 196.679461,25.3700866 C197.22591,25.3700866 197.645645,25.5252287 197.938103,25.8355128 C198.229994,26.1457969 198.376506,26.6021967 198.376506,27.2035837 C198.376506,27.5612567 198.272421,28.2382403 198.065381,29.2345344 C198.065381,29.2345344 197.353849,30.8568126 197.938103,31.5475615 C198.156927,31.8062717 198.475682,31.7289235 198.788816,31.5427454 Z M144.466535,21.4210159 C144.466535,20.7626494 144.725618,20.2131644 145.244348,19.7714327 C145.763078,19.3291367 146.408521,19.1079888 147.181807,19.1079888 C147.879293,19.1079888 148.444975,19.2777988 148.878852,19.6157264 C149.31273,19.9542182 149.529386,20.4337482 149.529386,21.0543165 C149.529386,21.8068965 149.284446,22.4043345 148.794,22.8455021 C148.303554,23.287798 147.65302,23.508946 146.842398,23.508946 C146.050444,23.508946 145.456478,23.3250321 145.060501,22.9583327 C144.664524,22.5921974 144.466535,22.0793824 144.466535,21.4210159 Z M169.327452,32.6340073 C169.666861,31.7595702 169.836566,30.8428216 169.836566,29.8837616 C169.836566,29.3196086 169.723429,28.8919807 169.497157,28.5997495 C169.270884,28.3086465 168.969376,28.1630951 168.592066,28.1630951 C167.913248,28.1630951 167.09301,28.8773127 166.131351,30.3068763 C166.112118,31.1339246 166.103067,32.3474176 166.103067,33.9456629 C166.103067,34.8105094 166.09345,35.4784665 166.074783,35.9484059 C166.753601,35.7977771 167.380376,35.4265644 167.955674,34.8336397 C168.530972,34.241279 168.988043,33.5078802 169.327452,32.6340073 Z M162.59584,37.0767118 C161.784653,38.9570336 161.143736,40.7527325 160.672523,42.4638084 C160.20131,44.1754485 159.965421,45.6134744 159.965421,46.7801427 C159.965421,47.3815297 160.036131,47.8424427 160.177551,48.1617533 C160.318972,48.4810639 160.484151,48.6418475 160.672523,48.6418475 C161.181636,48.6418475 161.605898,47.5366718 161.945307,45.3274488 C162.284716,43.1176617 162.501372,40.367416 162.59584,37.0767118 Z M178.773996,32.2810732 L178.773996,32.3374885 C179.886126,32.0745932 180.762933,31.6796861 181.404416,31.1527673 C182.045333,30.6269767 182.366075,30.0154349 182.366075,29.3192702 C182.366075,28.9621613 182.26708,28.6755716 182.069092,28.4589369 C181.871103,28.2428663 181.602405,28.1345489 181.262996,28.1345489 C180.564944,28.1345489 179.97607,28.5390466 179.49524,29.3474778 C179.014411,30.1564731 178.773996,31.1341502 178.773996,32.2810732 Z M121.951897,22.0138278 C121.951897,23.8563514 122.546428,25.2193449 123.73436,26.1033726 C124.469746,23.9973896 124.837439,22.2581061 124.837439,20.8849578 C124.837439,20.0957078 124.733919,19.5168868 124.526314,19.1501874 C124.319274,18.783488 124.035868,18.6007024 123.677791,18.6007024 C123.169244,18.6007024 122.754033,18.8968827 122.433292,19.4886792 C122.113116,20.0810398 121.951897,20.9233202 121.951897,22.0138278 Z M109.974153,21.2533496 C109.974153,22.9288839 110.119534,24.614573 110.409728,26.3109809 C111.198288,24.2636698 111.592003,22.2778514 111.592003,20.3535257 C111.592003,19.9400016 111.524687,19.5676606 111.389489,19.2365028 C111.254857,18.9059092 111.052343,18.7400482 110.783078,18.7400482 C110.243418,18.7400482 109.974153,19.5778154 109.974153,21.2533496 Z" fill="#FFFFFF"></path>
                    <path d="M0.217978351,25.0455846 C0.217978351,25.0455846 7.62479116,21.3649998 11.5750913,13.1859224 C15.5253915,5.00684496 19.4756917,-0.309555361 26.3887169,0.0993985103 C33.3017422,0.508352381 36.2644674,3.77998335 36.2644674,3.77998335 C36.2644674,3.77998335 40.708555,-0.718509232 46.6340053,0.0993985103 C52.5594555,0.917306252 55.0283931,3.37102948 59.4724808,11.5501069 C63.9165685,19.7291843 69.3482312,23.818723 70.8295938,24.6366308 C72.3109564,25.4545385 67.3730812,24.2276769 62.9289935,33.2246621 C58.4849058,42.2216472 52.065668,51.6275863 40.2147675,51.6275863 C28.363867,51.6275863 20.4632667,51.2186324 14.0440289,41.4037395 C7.62479116,31.5888466 8.11857868,29.5440772 5.64964108,27.9082617 C3.18070347,26.2724463 0.217978351,25.0455846 0.217978351,25.0455846 Z M18.3798892,6.58732018 L18.8736767,6.58732018 C18.8736767,6.58732018 21.8364019,4.52940864 25.2929145,4.13359695 C28.7494271,3.73778527 32.2059398,4.9515047 32.2059398,4.9515047 C32.2059398,4.9515047 31.2183647,2.90673534 25.786702,2.49778147 C20.3550393,2.0888276 18.3798892,6.58732018 18.3798892,6.58732018 Z M53.4388032,6.58732018 C53.4388032,6.58732018 51.4636531,2.0888276 46.0319904,2.49778147 C40.6003276,2.90673534 39.6127526,4.9515047 39.6127526,4.9515047 C39.6127526,4.9515047 43.0692652,3.73778527 46.5257779,4.13359695 C49.9822905,4.52940864 52.9450157,6.58732018 52.9450157,6.58732018 L53.4388032,6.58732018 Z M52.8392096,26.8006562 C52.8392096,18.3511892 45.3703616,11.5011906 36.1575444,11.5011906 C26.9445396,11.5011906 19.4756917,18.3511892 19.4756917,26.8006562 C19.4756917,35.2502952 26.9445396,42.1002938 36.1575444,42.1002938 C45.3703616,42.1002938 52.8392096,35.2502952 52.8392096,26.8006562 Z" id="Combined-Shape" fill="url(#linearGradient-2)"></path>
                    <path d="M42.3117673,29.4960811 C41.6326986,28.8248794 40.7812366,28.8248794 40.102168,29.4960811 C39.5847095,30.0063469 39.0670423,30.5166821 38.5604366,31.0380422 C38.4212975,31.182406 38.3044902,31.2100723 38.131888,31.1157712 C37.7978845,30.9327162 37.441897,30.7886297 37.1190942,30.5887254 C35.6219569,29.6512618 34.3639998,28.44192 33.2508866,27.0773281 C32.7000347,26.4007179 32.2046298,25.6794535 31.8651998,24.8641653 C31.7983435,24.6976129 31.8037699,24.5922176 31.942909,24.4592254 C32.4606458,23.9600538 32.9671819,23.4495106 33.4734397,22.9391754 C34.1802666,22.2292825 34.1802666,21.3972143 33.4680133,20.6816356 C33.0671534,20.2766958 32.6609366,19.8717559 32.2546503,19.4722245 C31.8372329,19.0561903 31.4255201,18.6401562 31.002398,18.2241221 C30.3178333,17.5586755 29.4718673,17.5529897 28.7873027,18.2241221 C28.2698442,18.7344573 27.7633081,19.2615032 27.2402145,19.7607441 C26.7505142,20.226841 26.4999246,20.7926474 26.4499041,21.4581633 C26.3719166,22.5343049 26.6336373,23.5551139 27.0064607,24.548118 C27.7744392,26.600345 28.937573,28.4199395 30.3458003,30.0952396 C32.2492239,32.3581878 34.531106,34.1444996 37.1970817,35.4370483 C38.3936088,36.0193573 39.6401564,36.4632657 40.9926585,36.535309 C41.9221081,36.5851637 42.7346111,36.352254 43.3803559,35.6311975 C43.8254621,35.1374344 44.320867,34.6881175 44.7940097,34.2165428 C45.4897055,33.5177442 45.4951319,32.6688959 44.8051408,31.9755057 C43.9703059,31.1434375 43.1408975,30.3224635 42.3117673,29.4960811 Z" id="Combined-Shape" fill="url(#linearGradient-2)"></path>
                </g>
            </g>
        </g>
    </g>
</svg>