<?xml version="1.0" encoding="UTF-8"?>
<svg width="30px" height="29px" viewBox="0 0 30 29" version="1.1" xmlns="http://www.w3.org/2000/svg" xmlns:xlink="http://www.w3.org/1999/xlink">
    <!-- Generator: Sketch 45.2 (43514) - http://www.bohemiancoding.com/sketch -->
    <title>Google +</title>
    <desc>Created with Sketch.</desc>
    <defs></defs>
    <g id="Page-1" stroke="none" stroke-width="1" fill="none" fill-rule="evenodd" opacity="0.900000036">
        <g id="Whipers---Home" transform="translate(-1178.000000, -5687.000000)">
            <g id="footer" transform="translate(0.000000, 5401.000000)">
                <g id="social" transform="translate(1140.000000, 286.000000)">
                    <g id="Google-+" transform="translate(38.647235, 0.000000)">
                        <path d="M0.5,14.5 C0.5,22.2311392 6.81632066,28.5 14.6097756,28.5 C22.4032305,28.5 28.7195512,22.2311392 28.7195512,14.5 C28.7195512,6.7688608 22.4032305,0.5 14.6097756,0.5 C6.81632066,0.5 0.5,6.7688608 0.5,14.5 Z" id="back" stroke="#FFFFFF"></path>
                        <path d="M11.9362039,14.0857143 L11.9362039,15.66 L14.5688,15.66 C14.4627004,16.335631 13.7730531,17.6409762 11.9362039,17.6409762 C10.3513413,17.6409762 9.05825252,16.3421905 9.05825252,14.7416667 C9.05825252,13.1411429 10.3513413,11.8423571 11.9362039,11.8423571 C12.8380504,11.8423571 13.4414919,12.2228095 13.7863155,12.5507857 L15.0462482,11.3503929 C14.2372388,10.6026071 13.1895053,10.15 11.9362039,10.15 C9.36992007,10.15 7.29434684,12.203131 7.29434684,14.7416667 C7.29434684,17.2802024 9.36992007,19.3333333 11.9362039,19.3333333 C14.6152186,19.3333333 16.3923867,17.4704286 16.3923867,14.846619 C16.3923867,14.544881 16.3592306,14.3152976 16.3194432,14.0857143 L11.9362039,14.0857143 L11.9362039,14.0857143 Z" id="Shape" fill="#FFFFFF"></path>
                        <polyline id="Shape-Copy" fill="#FFFFFF" points="21.8830405 14.0857143 20.5567956 14.0857143 20.5567956 12.7738095 19.2305507 12.7738095 19.2305507 14.0857143 17.9043059 14.0857143 17.9043059 15.397619 19.2305507 15.397619 19.2305507 16.7095238 20.5567956 16.7095238 20.5567956 15.397619 21.8830405 15.397619"></polyline>
                    </g>
                </g>
            </g>
        </g>
    </g>
</svg>