<?xml version="1.0" encoding="UTF-8"?>
<svg width="30px" height="29px" viewBox="0 0 30 29" version="1.1" xmlns="http://www.w3.org/2000/svg" xmlns:xlink="http://www.w3.org/1999/xlink">
    <!-- Generator: Sketch 45.2 (43514) - http://www.bohemiancoding.com/sketch -->
    <title>Instagram</title>
    <desc>Created with Sketch.</desc>
    <defs>
        <path d="M0,14.5 C0,6.49187073 6.50492073,0 14.529148,0 C22.5533752,0 29.058296,6.49187073 29.058296,14.5 C29.058296,22.5081293 22.5533752,29 14.529148,29 C6.50492073,29 0,22.5081293 0,14.5 Z" id="path-1"></path>
    </defs>
    <g id="Page-1" stroke="none" stroke-width="1" fill="none" fill-rule="evenodd" opacity="0.900000036">
        <g id="Whipers---Home" transform="translate(-1255.000000, -5687.000000)">
            <g id="footer" transform="translate(0.000000, 5401.000000)">
                <g id="social" transform="translate(1140.000000, 286.000000)">
                    <g id="Instagram" transform="translate(115.941704, 0.000000)">
                        <mask id="mask-2" fill="white">
                            <use xlink:href="#path-1"></use>
                        </mask>
                        <path stroke="#FFFFFF" d="M0.5,14.5 C0.5,22.2317619 6.78083858,28.5 14.529148,28.5 C22.2774574,28.5 28.558296,22.2317619 28.558296,14.5 C28.558296,6.76823813 22.2774574,0.5 14.529148,0.5 C6.78083858,0.5 0.5,6.76823813 0.5,14.5 Z"></path>
                        <path d="M14.5298744,6.76666667 C12.4253862,6.76666667 12.1612758,6.7758501 11.3347201,6.81338938 C10.5097788,6.85108977 9.94668769,6.98143001 9.45398301,7.1726709 C8.94432748,7.37019518 8.5120001,7.63442015 8.08128709,8.06443019 C7.65025121,8.49427911 7.38549509,8.92573916 7.186928,9.43421112 C6.99481838,9.92608847 6.86405468,10.488211 6.82692425,11.3111751 C6.78995526,12.1360726 6.78026906,12.3998142 6.78026906,14.5000806 C6.78026906,16.6003469 6.78963238,16.8631218 6.82708569,17.6880193 C6.8650233,18.5113057 6.99562556,19.0732671 7.18708944,19.5649833 C7.38517222,20.0736164 7.64992834,20.5050764 8.08080278,20.9349254 C8.51135436,21.3650965 8.94368173,21.6299659 9.45301439,21.8274902 C9.94604195,22.0187311 10.5092944,22.1490713 11.3340743,22.1867717 C12.16063,22.224311 12.424579,22.2334944 14.5289058,22.2334944 C16.6335556,22.2334944 16.8968587,22.224311 17.7234144,22.1867717 C18.5483558,22.1490713 19.1120926,22.0187311 19.6051201,21.8274902 C20.1146142,21.6299659 20.5462959,21.3650965 20.9768474,20.9349254 C21.4078833,20.5050764 21.6726394,20.0736164 21.8712065,19.5651444 C22.0617018,19.0732671 22.1924655,18.5111446 22.2312103,17.6881804 C22.2683407,16.863283 22.2780269,16.6003469 22.2780269,14.5000806 C22.2780269,12.3998142 22.2683407,12.1362337 22.2312103,11.3113362 C22.1924655,10.4880499 22.0617018,9.92608847 21.8712065,9.43437223 C21.6726394,8.92573916 21.4078833,8.49427911 20.9768474,8.06443019 C20.5458116,7.63425904 20.1147757,7.37003406 19.6046358,7.1726709 C19.1106397,6.98143001 18.5472257,6.85108977 17.7222844,6.81338938 C16.8957287,6.7758501 16.6325869,6.76666667 14.5274529,6.76666667 L14.5298744,6.76666667 Z M13.8347282,8.16029229 C14.0410442,8.15997007 14.2712529,8.16029229 14.5298744,8.16029229 C16.5988467,8.16029229 16.844069,8.16770348 17.6610999,8.20475942 C18.4166235,8.23923756 18.8266726,8.36522776 19.0998234,8.47107887 C19.4614415,8.61124699 19.7192559,8.77880429 19.990308,9.04947378 C20.2615216,9.32014327 20.4294157,9.57792373 20.5701885,9.93881638 C20.6762524,10.211097 20.8026573,10.6203235 20.8370433,11.3743313 C20.8741737,12.189562 20.8822456,12.4344535 20.8822456,14.4983083 C20.8822456,16.5621631 20.8741737,16.8070546 20.8370433,17.6222853 C20.8024958,18.3762932 20.6762524,18.7855196 20.5701885,19.0578003 C20.4297386,19.4186929 20.2615216,19.6756678 19.990308,19.9461762 C19.7190944,20.2168457 19.4616029,20.384403 19.0998234,20.5245711 C18.8269954,20.6309055 18.4166235,20.7565735 17.6610999,20.7910516 C16.8442304,20.8281076 16.5988467,20.8361632 14.5298744,20.8361632 C12.4607408,20.8361632 12.2155185,20.8281076 11.398649,20.7910516 C10.6431254,20.7562513 10.2330763,20.6302611 9.95976406,20.52441 C9.59814594,20.3842418 9.33984729,20.2166845 9.0686337,19.9460151 C8.79742012,19.6753456 8.62952599,19.4182096 8.48875322,19.0571558 C8.38268934,18.7848752 8.25628443,18.3756487 8.22189843,17.6216409 C8.18476799,16.8064101 8.17734191,16.5615187 8.17734191,14.496375 C8.17734191,12.4312312 8.18476799,12.1876287 8.22189843,11.372398 C8.25644587,10.6183901 8.38268934,10.2091636 8.48875322,9.9365608 C8.62920312,9.57566815 8.79742012,9.31788769 9.0686337,9.0472182 C9.33984729,8.77654871 9.59814594,8.60899141 9.95976406,8.46850106 C10.2329149,8.36216662 10.6431254,8.23649864 11.398649,8.20185939 C12.1134905,8.16963684 12.3905158,8.15997007 13.8347282,8.15835894 L13.8347282,8.16029229 Z M18.6662045,9.44436123 C18.152836,9.44436123 17.7363294,9.85954888 17.7363294,10.3720487 C17.7363294,10.8843873 18.152836,11.3000583 18.6662045,11.3000583 C19.1795731,11.3000583 19.5960797,10.8843873 19.5960797,10.3720487 C19.5960797,9.85971 19.1795731,9.444039 18.6662045,9.444039 L18.6662045,9.44436123 Z M14.5298744,10.5286503 C12.3322372,10.5286503 10.5504608,12.3068522 10.5504608,14.5000806 C10.5504608,16.693309 12.3322372,18.4707053 14.5298744,18.4707053 C16.7275117,18.4707053 18.5086423,16.693309 18.5086423,14.5000806 C18.5086423,12.3068522 16.7273503,10.5286503 14.529713,10.5286503 L14.5298744,10.5286503 Z M14.5298744,11.9222759 C15.9563288,11.9222759 17.112861,13.0763268 17.112861,14.5000806 C17.112861,15.9236732 15.9563288,17.0778852 14.5298744,17.0778852 C13.1032587,17.0778852 11.9468879,15.9236732 11.9468879,14.5000806 C11.9468879,13.0763268 13.1032587,11.9222759 14.5298744,11.9222759 L14.5298744,11.9222759 Z" id="Shape" fill="#FFFFFF" mask="url(#mask-2)"></path>
                    </g>
                </g>
            </g>
        </g>
    </g>
</svg>