<?xml version="1.0" encoding="UTF-8"?>
<svg width="30px" height="29px" viewBox="0 0 30 29" version="1.1" xmlns="http://www.w3.org/2000/svg" xmlns:xlink="http://www.w3.org/1999/xlink">
    <!-- Generator: Sketch 45.2 (43514) - http://www.bohemiancoding.com/sketch -->
    <title>Twitter</title>
    <desc>Created with Sketch.</desc>
    <defs></defs>
    <g id="Page-1" stroke="none" stroke-width="1" fill="none" fill-rule="evenodd" opacity="0.900000036">
        <g id="Whipers---Home" transform="translate(-1217.000000, -5687.000000)">
            <g id="footer" transform="translate(0.000000, 5401.000000)">
                <g id="social" transform="translate(1140.000000, 286.000000)">
                    <g id="Twitter" transform="translate(77.294469, 0.000000)">
                        <path d="M0.5,14.5 C0.5,22.2317619 6.78083858,28.5 14.529148,28.5 C22.2774574,28.5 28.558296,22.2317619 28.558296,14.5 C28.558296,6.76823813 22.2774574,0.5 14.529148,0.5 C6.78083858,0.5 0.5,6.76823813 0.5,14.5 Z" id="back" stroke="#FFFFFF"></path>
                        <path d="M14.0940016,11.7857816 L14.1244901,12.2875143 L13.6163482,12.2260777 C11.7667115,11.9905705 10.1508202,11.1918939 8.77883696,9.85052688 L8.1080896,9.18496308 L7.93532134,9.67645635 C7.56945915,10.7720768 7.80320444,11.9291338 8.56541734,12.7073315 C8.97193089,13.1373881 8.88046534,13.1988248 8.17922947,12.9428387 C7.93532134,12.8609232 7.72190173,12.7994865 7.70157605,12.8302048 C7.63043618,12.9018809 7.87434431,13.8336703 8.06743825,14.2022902 C8.33167205,14.7142624 8.8703025,15.2159951 9.45974715,15.5129389 L9.95772624,15.7484461 L9.3682816,15.7586856 C8.79916263,15.7586856 8.77883696,15.768925 8.83981399,15.9839533 C9.04307076,16.6495171 9.84593502,17.3560387 10.7402648,17.663222 L11.3703608,17.8782503 L10.8215675,18.2059125 C10.0085404,18.6769268 9.0532336,18.9431524 8.09792676,18.9636313 C7.64059902,18.9738707 7.26457399,19.0148285 7.26457399,19.0455468 C7.26457399,19.1479412 8.50444031,19.72135 9.22600186,19.9466178 C11.3906865,20.6121816 13.9618847,20.3254772 15.892824,19.188899 C17.2648073,18.379983 18.6367905,16.7723904 19.2770493,15.2159951 C19.6225858,14.3866002 19.9681223,12.8711626 19.9681223,12.1441621 C19.9681223,11.6731478 19.9986109,11.6117111 20.5677298,11.0485417 C20.9031035,10.7208795 21.2181515,10.362499 21.2791285,10.2601046 C21.3807569,10.0655552 21.3705941,10.0655552 20.8522893,10.2396257 C19.988448,10.546809 19.866494,10.5058512 20.2933332,10.0450763 C20.6083812,9.71741412 20.9844062,9.12352642 20.9844062,8.94945589 C20.9844062,8.91873756 20.8319636,8.96993477 20.6591954,9.06208976 C20.4762643,9.16448419 20.0697507,9.31807584 19.7648656,9.41023083 L19.2160723,9.58430136 L18.7180932,9.24639974 C18.4436965,9.06208976 18.0575087,8.8573009 17.8542519,8.79586424 C17.3359471,8.65251204 16.5432457,8.67299092 16.0757551,8.83682201 C14.8054003,9.29759695 14.002536,10.4853724 14.0940016,11.7857816 Z" id="Shape" fill="#FFFFFF"></path>
                    </g>
                </g>
            </g>
        </g>
    </g>
</svg>