<?xml version="1.0" encoding="UTF-8"?>
<svg width="121px" height="181px" viewBox="0 0 121 181" version="1.1" xmlns="http://www.w3.org/2000/svg" xmlns:xlink="http://www.w3.org/1999/xlink">
    <!-- Generator: Sketch 45.2 (43514) - http://www.bohemiancoding.com/sketch -->
    <title>Page 1</title>
    <desc>Created with Sketch.</desc>
    <defs>
        <polygon id="path-1" points="0 0.109390913 0 43.4628036 45.3806815 43.4628036 45.3806815 0.109390913"></polygon>
    </defs>
    <g id="Page-1" stroke="none" stroke-width="1" fill="none" fill-rule="evenodd">
        <g id="Whipers---Contact-Form" transform="translate(-660.000000, -124.000000)">
            <g id="Group-5" transform="translate(470.000000, 104.000000)">
                <g id="Page-1" transform="translate(190.000000, 20.000000)">
                    <path d="M90.6049582,122.497317 L90.6049582,103.484857 L90.6049582,122.497317 Z" id="Fill-1" fill="#BDBDBD"></path>
                    <path d="M90.6049582,105.21309 L90.6049582,121.633096" id="Stroke-3" stroke="#BDBDBD" stroke-width="4" stroke-linecap="round" stroke-linejoin="round" stroke-dasharray="0,4.105"></path>
                    <path d="M20.7829867,122.497317 L20.7829867,103.484857 L20.7829867,122.497317 Z" id="Fill-5" fill="#BDBDBD"></path>
                    <path d="M20.783113,105.21309 L20.783113,121.633096" id="Stroke-7" stroke="#BDBDBD" stroke-width="4" stroke-linecap="round" stroke-linejoin="round" stroke-dasharray="0,4.105"></path>
                    <polygon id="Fill-9" fill="#4C2C03" points="90.3817553 100.632903 92.4870462 100.632903 92.4870462 0.420637115 90.3817553 0.420637115"></polygon>
                    <polygon id="Fill-10" fill="#EA5614" points="90.3817553 21.7323702 120.758155 12.2261399 90.3817553 2.71990948"></polygon>
                    <polygon id="Fill-11" fill="#F6F0E8" points="92.4006029 3.39987633 90.2279428 2.71986738 90.2279428 21.7323281 92.4006029 21.0523192"></polygon>
                    <polygon id="Fill-13" fill="#4C2C03" points="50.3812288 177.265491 65.5393231 177.265491 65.5393231 81.2642274 50.3812288 81.2642274"></polygon>
                    <g id="Group-59" transform="translate(0.000000, 23.208003)">
                        <polygon id="Fill-14" fill="#4C2C03" points="50.3812288 92.1619367 65.5393231 92.1619367 65.5393231 58.0562247 50.3812288 58.0562247"></polygon>
                        <path d="M95.2513773,85.142897 L95.2513773,39.7161938 C95.2513773,17.8906434 77.6894619,0.197357936 56.02644,0.197357936 L56.0091766,0.197357936 C34.3457336,0.197357936 16.7842393,17.8906434 16.7842393,39.7161938 L16.7842393,85.142897 L95.2513773,85.142897 Z" id="Fill-16" fill="#EA5614"></path>
                        <polygon id="Fill-18" fill="#EAE7DA" points="65.0976331 33.90597 102.358755 22.7816131 109.269583 45.9292861 72.0084609 57.053222"></polygon>
                        <polygon id="Fill-20" fill="#EAE7DA" points="87.1263019 39.7247413 108.774166 46.0768249 72.5033726 56.905599"></polygon>
                        <polygon id="Fill-22" fill="#F3F1E9" points="88.5773947 44.5862369 65.5926712 33.7583049 101.864306 22.9295308"></polygon>
                        <g id="Group-26" transform="translate(5.000000, 5.631956)">
                            <mask id="mask-2" fill="white">
                                <use xlink:href="#path-1"></use>
                            </mask>
                            <g id="Clip-25"></g>
                            <polygon id="Fill-24" fill="#EAE7DA" mask="url(#mask-2)" points="15.3386019 0.109390913 45.3806815 24.7998211 30.0423743 43.4628036 -0.000126317452 18.7727944"></polygon>
                        </g>
                        <polygon id="Fill-27" fill="#EAE7DA" points="27.8183635 27.2625984 34.6428743 48.7664603 5.39912104 24.7324598"></polygon>
                        <polygon id="Fill-29" fill="#F3F1E9" points="24.596679 31.1820605 20.7376808 6.06972996 49.9818552 30.1041515"></polygon>
                        <path d="M26.8018869,75.7406259 L26.8018869,39.2976199 C26.8018869,22.9580364 39.8386901,9.66480885 56.0565878,9.66480885 C72.2925909,9.66480885 85.328973,22.9580364 85.328973,39.2976199 L85.328973,75.7406259 L26.8018869,75.7406259 Z" id="Stroke-31" stroke="#F6F0E8" stroke-width="4"></path>
                        <path d="M26.8018869,75.7406259 L26.8018869,39.2976199 C26.8018869,22.9580364 39.8386901,9.66480885 56.0565878,9.66480885 C72.2925909,9.66480885 85.328973,22.9580364 85.328973,39.2976199 L85.328973,75.7406259 L26.8018869,75.7406259 Z" id="Fill-33" fill="#EA5614"></path>
                        <path d="M27.6440033,75.3195677 L27.6440033,39.0525641 C27.6440033,23.2675142 40.1679576,10.4252399 55.8460587,10.4252399 C71.533423,10.4252399 84.0657985,23.2675142 84.0657985,39.0525641 L84.0657985,75.3195677 L27.6440033,75.3195677 Z" id="Stroke-35" stroke="#EA5614" stroke-width="4"></path>
                        <polygon id="Fill-37" fill="#AF7504" points="0 122.1582 120 122.1582 120 99 0 99"></polygon>
                        <polygon id="Fill-39" fill="#4C2C03" points="26.5494205 116.302423 17.1177174 114.433346 17.1177174 118.1715 26.5494205 116.302423 17.1177174 114.433346 17.1177174 118.1715"></polygon>
                        <polygon id="Fill-40" fill="#4C2C03" points="26.5494205 110.21889 17.1177174 108.349392 17.1177174 112.087546 26.5494205 110.21889 17.1177174 108.349392 17.1177174 112.087546"></polygon>
                        <polygon id="Fill-41" fill="#4C2C03" points="26.5494205 104.134894 17.1177174 102.265396 17.1177174 106.00355 26.5494205 104.134894 17.1177174 102.265396 17.1177174 106.00355"></polygon>
                        <polygon id="Fill-42" fill="#4C2C03" points="86.0020766 116.302423 95.4342007 114.433346 95.4342007 118.1715 86.0020766 116.302423 95.4342007 114.433346 95.4342007 118.1715"></polygon>
                        <polygon id="Fill-43" fill="#4C2C03" points="86.0020766 110.21889 95.4342007 108.349392 95.4342007 112.087546 86.0020766 110.21889 95.4342007 108.349392 95.4342007 112.087546"></polygon>
                        <polygon id="Fill-44" fill="#4C2C03" points="86.0020766 104.134894 95.4342007 102.265396 95.4342007 106.00355 86.0020766 104.134894 95.4342007 102.265396 95.4342007 106.00355"></polygon>
                        <polygon id="Fill-45" fill="#1D1D1B" points="17.9597495 101.004158 23.8545639 101.004158 23.8545639 97.635693 17.9597495 97.635693"></polygon>
                        <polygon id="Fill-46" fill="#1D1D1B" points="88.2764644 101.004158 93.7502207 101.004158 93.7502207 97.635693 88.2764644 97.635693"></polygon>
                        <path d="M59.3602944,24.7173438 C59.3602944,22.8937409 57.8929067,21.4154056 56.0827776,21.4154056 C54.2726485,21.4154056 52.8048397,22.8937409 52.8048397,24.7173438 C52.8048397,25.7918843 53.3160043,27.6841197 54.1046463,28.2874961 L53.5400073,33.2138767 L58.5981791,33.2138767 L58.0364875,28.3051805 C58.8377612,27.7034884 59.3602944,25.8028318 59.3602944,24.7173438" id="Fill-47" fill="#1D1D1B"></path>
                        <path d="M59.3602944,24.7173438 C59.3602944,22.8937409 57.8929067,21.4154056 56.0827776,21.4154056 C54.2726485,21.4154056 52.8048397,22.8937409 52.8048397,24.7173438 C52.8048397,25.7918843 53.3160043,27.6841197 54.1046463,28.2874961 L53.5400073,33.2138767 L58.5981791,33.2138767 L58.0364875,28.3051805 C58.8377612,27.7034884 59.3602944,25.8028318 59.3602944,24.7173438 Z" id="Stroke-48" stroke="#2D2A44" stroke-width="2" stroke-linecap="round" stroke-linejoin="round"></path>
                        <polygon id="Fill-49" fill="#FAFCFB" points="28.4862038 74.4774934 83.2237664 74.4774934 83.2237664 53.0035266 28.4862038 53.0035266"></polygon>
                        <path d="M71.4340533,62.0743407 C71.4340533,62.6777171 70.8719406,63.5299388 70.2731959,63.5299388 L41.4926066,63.5299388 C40.8938619,63.5299388 40.2757485,62.6777171 40.2757485,62.0743407 L40.2757485,61.9766552 C40.2757485,61.3736999 40.8938619,61.0035898 41.4926066,61.0035898 L70.2731959,61.0035898 C70.8719406,61.0035898 71.4340533,61.3736999 71.4340533,61.9766552 L71.4340533,62.0743407 Z" id="Fill-50" fill="#EA5614"></path>
                        <path d="M71.4340533,57.8912962 C71.4340533,58.4950936 70.8719406,59.3195255 70.2731959,59.3195255 L41.4926066,59.3195255 C40.8938619,59.3195255 40.2757485,58.4950936 40.2757485,57.8912962 L40.2757485,57.7940318 C40.2757485,57.1906554 40.8938619,56.3721183 41.4926066,56.3721183 L70.2731959,56.3721183 C70.8719406,56.3721183 71.4340533,57.1906554 71.4340533,57.7940318 L71.4340533,57.8912962 Z" id="Fill-51" fill="#EA5614"></path>
                        <path d="M71.4340533,65.8770013 C71.4340533,66.4799566 70.8719406,66.8984884 70.2731959,66.8984884 L41.4926066,66.8984884 C40.8938619,66.8984884 40.2757485,66.4799566 40.2757485,65.8770013 L40.2757485,65.7788947 C40.2757485,65.1759394 40.8938619,64.7931976 41.4926066,64.7931976 L70.2731959,64.7931976 C70.8719406,64.7931976 71.4340533,65.1759394 71.4340533,65.7788947 L71.4340533,65.8770013 Z" id="Fill-52" fill="#EA5614"></path>
                        <path d="M71.4340533,69.679704 C71.4340533,70.2822382 70.8719406,71.1091965 70.2731959,71.1091965 L41.4926066,71.1091965 C40.8938619,71.1091965 40.2757485,70.2822382 40.2757485,69.679704 L40.2757485,69.5811764 C40.2757485,68.9782211 40.8938619,68.5828474 41.4926066,68.5828474 L70.2731959,68.5828474 C70.8719406,68.5828474 71.4340533,68.9782211 71.4340533,69.5811764 L71.4340533,69.679704 Z" id="Fill-53" fill="#EA5614"></path>
                        <path d="M101.190192,153.86418 C101.190192,155.946313 81.7499364,157.633914 57.7698314,157.633914 C33.7893052,157.633914 14.3490494,155.946313 14.3490494,153.86418 C14.3490494,151.781206 33.7893052,150.093183 57.7698314,150.093183 C81.7499364,150.093183 101.190192,151.781206 101.190192,153.86418" id="Fill-54" fill="#2D2A44" opacity="0.200000003"></path>
                        <path d="M74.8029397,153.863759 C74.8029397,154.281028 67.1771552,154.61998 57.7698735,154.61998 C48.3625918,154.61998 40.7368072,154.281028 40.7368072,153.863759 C40.7368072,153.445649 48.3625918,153.107539 57.7698735,153.107539 C67.1771552,153.107539 74.8029397,153.445649 74.8029397,153.863759" id="Fill-55" fill="#2D2A44"></path>
                        <path d="M53.4691853,154.303344 C48.4897513,145.971024 56.1344835,140.058525 56.1344835,140.058525 C54.8654142,142.940668 54.7525706,146.254817 55.124365,149.321384 C56.7332282,143.424043 64.8188083,141.058959 64.8188083,141.058959 C62.7034121,142.82614 61.204445,144.883852 60.1362204,146.954195 C63.2608931,144.208895 67.6883198,143.941945 67.6883198,143.941945 C63.839427,146.425767 61.2339191,150.882246 59.691583,154.303344 L53.4691853,154.303344 Z" id="Fill-56" fill="#49852A"></path>
                        <path d="M55.3306414,154.303344 C59.3197465,147.627046 53.1954554,142.888878 53.1954554,142.888878 C54.2118898,145.197961 54.3028384,147.854417 54.0043081,150.311713 C52.715028,145.585756 46.2357848,143.689731 46.2357848,143.689731 C47.930965,145.106591 49.132244,146.755034 49.9874131,148.414845 C47.4846434,146.214395 43.9368072,146.000498 43.9368072,146.000498 C47.0202162,147.991261 49.1078226,151.561834 50.3440494,154.303344 L55.3306414,154.303344 Z" id="Fill-57" fill="#61B138"></path>
                        <path d="M59.7480469,154.303344 C55.2827249,146.831246 62.137552,141.529281 62.137552,141.529281 C61.0002739,144.113315 60.8983778,147.085565 61.2314348,149.835917 C62.6748222,144.547426 69.925865,142.425714 69.925865,142.425714 C68.0285769,144.011419 66.6837171,145.856075 65.7258097,147.713784 C68.5279519,145.251014 72.4981094,145.011011 72.4981094,145.011011 C69.0466956,147.239251 66.7115069,151.235093 65.3283308,154.303344 L59.7480469,154.303344 Z" id="Fill-58" fill="#61B138"></path>
                    </g>
                </g>
            </g>
        </g>
    </g>
</svg>