<?xml version="1.0" encoding="UTF-8"?>
<svg width="148px" height="51px" viewBox="0 0 148 51" version="1.1" xmlns="http://www.w3.org/2000/svg" xmlns:xlink="http://www.w3.org/1999/xlink">
    <!-- Generator: Sketch 44.1 (41455) - http://www.bohemiancoding.com/sketch -->
    <title>logo</title>
    <desc>Created with Sketch.</desc>
    <defs>
        <linearGradient x1="11.6920994%" y1="0%" x2="100%" y2="80.7095858%" id="linearGradient-1">
            <stop stop-color="#FB3194" offset="0%"></stop>
            <stop stop-color="#DA006F" offset="100%"></stop>
        </linearGradient>
    </defs>
    <g id="Page-1" stroke="none" stroke-width="1" fill="none" fill-rule="evenodd">
        <g id="logo" fill="url(#linearGradient-1)" fill-rule="nonzero">
            <path d="M53.8196037,10.4878702 C53.3226338,12.602255 52.917211,14.9028621 52.6026088,17.3904163 C54.1044168,15.6274628 55.3453884,13.707271 56.32625,11.6291163 C57.3071116,9.5524107 57.7975424,7.6691736 57.7975424,5.9779556 C57.7975424,5.2048067 57.7125344,4.6135325 57.5432449,4.2019593 C57.3739555,3.7918353 57.131283,3.5867734 56.8166808,3.5867734 C56.3807423,3.5867734 55.896124,4.2084807 55.3635525,5.4526201 C54.830981,6.6967595 54.315847,8.3749346 53.8196037,10.4878702 Z M137.160051,25.1007929 C138.145752,24.1958418 138.844683,23.2699197 139.256843,22.3230266 C140.520706,19.4194431 140.243691,20.1453469 140.936222,18.5552813 C141.374825,17.5413265 142.286643,17.0343566 143.671705,17.0343566 C144.318067,17.0343566 144.768205,17.0919668 145.022133,17.207189 C145.276061,17.3224111 145.403023,17.5067638 145.403023,17.7602525 C145.403023,17.8985191 145.356855,18.1174379 145.264517,18.4170154 C145.17218,18.716593 145.045218,19.0161661 144.883627,19.3157437 C144.468109,20.1453431 144.260353,20.8481877 144.260353,21.4242984 C144.260353,21.7699648 144.381544,22.1501922 144.62393,22.5649919 C144.811514,22.8860097 145.078596,23.2691325 145.425179,23.7143676 C145.52643,23.8444384 145.634465,23.9798101 145.749286,24.1204831 C146.487986,25.0883491 147.047773,25.9121751 147.428665,26.5919857 C147.809557,27.2717964 148,28.014968 148,28.821523 C148,29.7893891 147.774931,30.7053914 147.324786,31.5695574 C146.874641,32.4337235 146.245602,33.130807 145.437649,33.6608289 C144.629697,34.1908508 143.706336,34.4558577 142.66754,34.4558577 C141.467154,34.4558577 140.549564,34.1793287 139.914744,33.6262624 C139.279924,33.0731961 138.962519,32.4510059 138.962519,31.759673 C138.962519,31.1605179 139.181817,30.642026 139.62042,30.2041819 C140.059023,29.7663377 140.705375,29.5474189 141.559497,29.5474189 C141.859593,29.5474189 142.211624,29.576224 142.615601,29.6338351 C143.019577,29.6914462 143.32544,29.7317733 143.533199,29.7548177 C143.510115,29.1556626 143.377382,28.5910826 143.134996,28.0610607 C142.89261,27.5310388 142.586747,27.018308 142.217397,26.5228528 C141.848048,26.0273975 141.501788,25.595321 141.178607,25.2266101 C140.462991,26.5862314 139.635277,27.3519563 137.992981,28.0610607 C136.47797,28.7152065 133.347945,28.3309286 133.125576,27.9598883 C132.930548,27.8489482 132.748672,27.7071268 132.579883,27.534391 C132.107616,27.0518069 131.871483,26.3996663 131.871483,25.5779691 C131.871483,25.1192969 131.895459,24.6243947 131.944139,24.0925378 C131.992092,23.7063256 132.016796,23.4403971 132.016796,23.295477 C132.016796,23.1027332 131.973928,22.9578131 131.889647,22.8607166 C131.804639,22.7643447 131.701467,22.7157965 131.580857,22.7157965 C131.241552,22.7157965 130.781637,23.1208482 130.200385,23.9295026 C129.619134,24.7388816 129.037883,25.8076676 128.456631,27.1358606 C127.87538,28.4647782 127.403113,29.8654313 127.039831,31.3385445 C126.773182,32.4979056 126.470205,33.2710545 126.131626,33.6572667 C125.792321,34.0442035 125.235046,34.2369472 124.460529,34.2369472 C123.539972,34.2369472 122.891877,33.7543632 122.51697,32.7877459 C122.393981,32.4714958 122.291165,32.0931026 122.208497,31.6525411 C121.649934,32.0703197 121.025528,32.4729593 120.33517,32.8603509 C118.700401,33.7784199 116.950834,34.2370922 115.085744,34.2370922 C112.54277,34.2370922 110.568695,33.5487215 109.164246,32.1719802 C108.909937,31.9228168 108.678664,31.6570398 108.470419,31.3746494 C107.837425,31.9928516 107.178895,32.5363404 106.494559,33.0049812 C105.295728,33.8266783 103.933421,34.2368023 102.407636,34.2368023 C101.123797,34.2368023 100.082631,33.7788547 99.28341,32.860061 C97.902938,33.7542183 96.461435,34.2128905 94.960353,34.2368023 C94.645025,38.8981585 93.930812,42.7928871 92.816989,45.9209882 C91.70244,49.0490894 90.067671,50.6127776 87.912681,50.6127776 C86.604866,50.6127776 85.636356,50.1425118 85.006425,49.2005309 C84.376494,48.2578254 84.061891,46.9535442 84.061891,45.2869626 C84.061891,42.9196922 84.606815,40.1604128 85.696661,37.0091245 C86.082409,35.89322 86.542433,34.7373735 87.076796,33.5415207 C86.392209,33.6914039 85.64178,33.7785606 84.82551,33.8026216 C83.856274,34.6235942 82.706123,35.0337181 81.374331,35.0337181 C80.114468,35.0337181 79.152498,34.7446025 78.486238,34.1649219 C77.8199789,33.5845168 77.4872125,32.9331008 77.4872125,32.2085001 C77.4872125,31.5809959 77.7168068,31.0375454 78.177448,30.5781486 C78.637364,30.1194763 79.315248,29.8897779 80.211828,29.8897779 C80.52643,29.8897779 80.895525,29.9202112 81.319838,29.980353 C81.743425,30.0412195 82.064567,30.0832463 82.282536,30.1064335 C82.257833,29.4789293 82.119059,28.8876552 81.864761,28.3311619 C81.610464,27.7768424 81.289323,27.2384641 80.902064,26.71965 C80.514805,26.2001113 80.151523,25.7472359 79.812218,25.3610237 C79.061677,26.7855886 78.316222,27.9688615 77.578033,28.911567 C77.4435145,29.0830532 77.3068048,29.2529304 77.1678995,29.4211987 C77.0825029,29.5783583 76.983174,29.7223261 76.8699236,29.8531131 C74.472262,32.7761523 72.2322647,34.2369472 70.1492054,34.2369472 C68.5747409,34.2369472 67.4304024,33.6819031 66.7161898,32.5703657 C66.5275768,32.2770163 66.3638433,31.9583998 66.225003,31.6145026 C65.6573571,32.1345456 65.0822997,32.5981079 64.5000965,33.0048362 C63.3252423,33.8265334 61.9876377,34.237382 60.4858297,34.237382 C59.2506706,34.237382 58.3177623,33.8808785 57.6885577,33.168596 C57.0586266,32.4563135 56.7440244,31.4237576 56.7440244,30.0709281 C56.7440244,29.3948757 56.9133138,28.1869663 57.2526193,26.4479247 C57.5672215,24.9262633 57.7248859,23.8755923 57.7248859,23.2959118 C57.7248859,22.9096996 57.5911981,22.7155066 57.3252757,22.7155066 C57.0106734,22.7155066 56.5623833,23.1205584 55.981132,23.9299374 C55.3998807,24.7393163 54.8186294,25.8081023 54.2373781,27.1362954 C53.6561268,28.4644884 53.1838601,29.8651415 52.820578,31.3389793 C52.3606629,33.2714893 51.2221369,34.237382 49.4057266,34.237382 C48.6791624,34.237382 48.2010832,33.977975 47.9707624,33.4577117 C47.7404416,32.9396222 47.6256444,32.0034381 47.6256444,30.649884 C47.6256444,29.8774597 47.637996,29.2615491 47.6619726,28.8028769 L47.6983008,25.9044742 C47.6983008,25.1859407 47.7125368,24.4615388 47.7410088,23.7312687 C46.3959086,23.7179441 45.152127,23.616352 44.0093911,23.4264923 C41.7370866,27.8497727 36.3393132,34.6157685 29.1056076,34.6157685 C26.249251,34.6157685 23.9228902,32.7217488 22.1273284,28.9337094 C19.1240183,32.7217488 15.708757,34.6157685 11.8807412,34.6157685 C9.2604736,34.6157685 7.1766262,33.9630725 5.6308048,32.6560788 C4.0849835,31.349085 3.3124743,29.2860852 3.3124743,26.4670791 C3.3124743,25.7919592 3.6874866,24.0076565 4.4383141,21.1157728 C5.1891416,18.2230882 5.7857885,15.8445518 6.2274517,13.9801637 C6.669918,12.1149748 6.8899466,10.6390009 6.8899466,9.5530429 C6.8899466,7.1745065 6.2860725,5.9852383 5.0799303,5.9852383 C4.6671759,5.9852383 4.2921637,6.1029639 3.9532875,6.3376141 C3.6144114,6.5730652 3.2755352,6.8221308 2.9374621,7.0864126 C2.5985859,7.3514953 2.2524825,7.6005608 1.899955,7.8360119 C1.5458213,8.0698613 1.1410972,8.1883877 0.6849795,8.1883877 C0.2280588,8.1883877 0,7.7919649 0,6.9983186 C0,5.383797 0.7516305,4.0615871 2.2524825,3.0348923 C3.6947138,1.9769641 5.4324579,1.4492014 7.4641088,1.4492014 C9.4965627,1.4492014 10.2563961,2.1683682 11.1983434,3.606702 C11.9636253,4.7519232 12.3466678,6.3079825 12.3466678,8.2756808 C12.3466678,9.1269885 12.1844569,10.2281628 11.8608382,11.5792035 C10.1825179,18.5682562 8.6015362,24.1380235 8.5726273,26.839304 C8.6015362,28.1310815 9.1467895,29.0128218 10.2067813,29.4829231 C10.6187326,29.6583101 11.1045622,29.746404 11.66427,29.746404 C14.2845375,29.746404 18.211783,27.4801594 20.5373407,24.3968716 C19.3601074,20.286088 18.7706878,15.6171093 18.7706878,10.3899353 C18.7706878,8.4518686 19.2348357,6.8733854 20.1623285,5.6552865 C21.0890183,4.4363867 22.5987035,3.8269368 24.6889752,3.8269368 C26.249251,3.8269368 27.4345145,4.2682074 28.2439628,5.1483459 C29.053411,6.0292853 29.4589382,7.1889219 29.4589382,8.6280565 C29.4589382,11.5944197 28.6783988,15.2503182 27.118123,19.5957519 C26.5881271,21.0637173 25.9697986,22.5172673 25.2631374,23.9564019 C26.5295064,27.3624339 28.2070237,29.0658503 30.2980983,29.0658503 C32.3595711,29.0658503 35.4262487,27.8510847 37.3438219,25.4215535 C38.0180626,24.3071676 38.6602227,23.07947 39.2703021,21.7381652 C37.7931973,20.8193716 36.6786479,19.6303019 35.9273805,18.1695069 C35.1768398,16.7072627 34.8019327,15.0225662 34.8019327,13.1154172 C34.8019327,11.206819 35.0983709,9.5945825 35.6919738,8.2787077 C36.2855767,6.9613836 37.0971488,5.9773759 38.1259636,5.3252353 C39.155505,4.6730947 40.2998435,4.3470244 41.5589792,4.3470244 C43.1087405,4.3470244 44.338087,4.9027931 45.2462922,6.0136059 C46.1544974,7.1251434 46.6085999,8.6460802 46.6085999,10.5793148 C46.6085999,13.308161 46.014997,16.3398902 44.8285178,19.6723287 C45.763266,19.8373869 46.8228498,19.9393659 48.0072693,19.9792079 C48.1976989,18.1139692 48.4761556,16.2124444 48.8426394,14.2746333 C49.6055317,10.2407814 50.7317061,6.8539978 52.2211626,4.1113842 C53.7106191,1.3709445 55.4965137,0 57.5795731,0 C58.6933959,0 59.5957886,0.4767872 60.2860245,1.4303617 C60.9762605,2.3853854 61.3213784,3.6230034 61.3213784,5.1439402 C61.3213784,7.5836707 60.6071659,10.1147009 59.1780142,12.7348569 C57.7488626,15.3557375 55.4238573,18.4171754 52.2029985,21.9191705 C52.1303421,23.1749035 52.0940139,24.4675911 52.0940139,25.7950595 C52.8932344,23.7429904 53.7832755,22.070612 54.7641371,20.7771998 C55.7449987,19.4859614 56.7135087,18.5620955 57.6703936,18.0056022 C58.6272786,17.4512827 59.5049681,17.173036 60.3041886,17.173036 C61.8786531,17.173036 62.6655221,17.9577786 62.6655221,19.5279882 C62.6655221,20.4699691 62.398873,22.1720561 61.8663015,24.636423 C61.4056599,26.737765 61.1760656,28.1268245 61.1760656,28.8028769 C61.1760656,29.7694942 61.5269961,30.2520783 62.2295836,30.2520783 C62.7142019,30.2520783 63.2889141,29.9557166 63.9551734,29.3644424 C64.415119,28.9562622 64.9817121,28.3719674 65.6549527,27.6120348 C65.6920553,26.6149282 65.8279763,25.3994941 66.0622821,23.9657326 C66.3405561,22.262921 66.6980257,20.6745964 67.1339642,19.2014832 C67.3519334,18.4290589 67.6425591,17.897202 68.0058412,17.6073617 C68.3691232,17.318246 68.9503745,17.1726013 69.7495951,17.1726013 C70.9847541,17.1726013 71.6023336,17.5841745 71.6023336,18.405147 C71.6023336,19.0087394 71.3720128,20.4093925 70.9120977,22.6071064 C70.3308464,25.264217 70.0402207,27.0634005 70.0402207,28.006106 C70.0402207,28.7307067 70.1368538,29.2857508 70.3308464,29.671963 C70.524839,30.0588997 70.8517929,30.2516435 71.311708,30.2516435 C71.7476465,30.2516435 72.2925696,29.9502096 72.9464773,29.3458927 C73.135526,29.1713905 73.342793,28.9675754 73.5682784,28.734465 C74.8438389,27.1561866 75.811531,25.849449 76.4700227,24.8175732 C76.8819846,24.1168843 77.3658763,23.1814249 77.923151,22.0097456 C78.479699,20.8380663 79.024622,19.6250847 79.55792,18.3679026 C80.017835,17.305638 80.97472,16.7745057 82.427849,16.7745057 C83.105733,16.7745057 83.578,16.8346475 83.844649,16.9556558 C84.110571,17.0766642 84.244259,17.2701325 84.244259,17.5353364 C84.244259,17.6802565 84.195579,17.9092303 84.098946,18.223707 C84.001587,18.5381837 83.868625,18.8519358 83.699336,19.1656879 C83.263397,20.0352087 83.045428,20.7721276 83.045428,21.37572 C83.045428,21.7380203 83.172577,22.1358261 83.426874,22.5713111 C83.681172,23.0060715 84.074243,23.549522 84.607541,24.2016626 C85.382058,25.215379 85.969849,26.0798276 86.369459,26.7913854 C86.769069,27.5051171 86.968875,28.2833382 86.968875,29.1289472 C86.968875,29.3702392 86.944171,29.7086278 86.896218,30.1426636 C87.862216,29.7692257 88.964994,28.8914518 90.204161,27.5089509 C90.380961,27.2057353 90.561668,26.9004151 90.746281,26.5929898 C90.746281,23.0663583 90.721578,20.6150342 90.673625,19.2375683 C90.648922,18.537604 90.927923,17.9825599 91.509174,17.5709867 C92.090425,17.1608628 92.816989,16.9558008 93.688866,16.9558008 C94.197461,16.9558008 94.566556,17.0579695 94.796877,17.2637561 C95.027197,17.468818 95.15362,17.8731452 95.178323,18.4767376 C95.178323,19.0810546 95.189948,19.5281332 95.214651,19.8172488 C95.989168,18.8520807 96.752787,18.1571887 97.503328,17.7340219 C98.253869,17.3123043 99.053089,17.0999963 99.90099,17.0999963 C101.256758,17.0999963 102.364769,17.6434468 103.225021,18.7303478 C104.084546,19.8172488 104.514672,21.243263 104.514672,23.0054918 C104.514672,24.2865858 104.309054,25.5300006 103.897092,26.7379099 C103.485131,27.9458192 102.916231,29.0443139 102.189667,30.034843 C102.698262,30.1797631 103.121848,30.2514986 103.461154,30.2514986 C104.260374,30.2514986 105.023267,29.9616583 105.749831,29.3819778 C106.156263,29.0577107 106.627036,28.6125916 107.162278,28.0464935 C107.092228,27.5630001 107.05721,27.0542006 107.05721,26.5200949 C107.05721,24.8535134 107.408141,23.3014187 108.110728,21.8645356 C108.812589,20.4276524 109.787638,19.2864064 111.035149,18.4407974 C112.281933,17.5951884 113.692921,17.1727462 115.267385,17.1727462 C116.671834,17.1727462 117.798008,17.5893916 118.645908,18.4226824 C119.493809,19.2559732 119.917396,20.3856256 119.917396,21.8101905 C119.917396,23.4767721 119.31798,24.9078584 118.119149,26.1034496 C116.920319,27.2990407 114.891752,28.2468184 112.034175,28.9475072 C112.639403,30.05832 113.789554,30.6140888 115.485354,30.6140888 C116.575201,30.6140888 117.816172,30.2336734 119.208996,29.4728427 C120.22658,28.9166968 121.144391,28.234721 121.961864,27.4269154 C122.025562,24.5515565 122.470569,21.8095559 123.298026,19.2014832 C123.515995,18.5015189 123.872738,17.987777 124.369708,17.6617067 C124.865951,17.3356364 125.562,17.1726013 126.45858,17.1726013 C126.942472,17.1726013 127.281051,17.2334677 127.47577,17.3537515 C127.669036,17.4747598 127.766395,17.7044582 127.766395,18.0421221 C127.766395,18.4290589 127.584754,19.2985797 127.221472,20.6506845 C126.9788,21.6173018 126.785534,22.4621862 126.640221,23.1867869 C126.494908,23.9113876 126.372845,24.8055448 126.276939,25.8678094 C127.076159,23.7911039 127.972013,22.0998859 128.965226,20.7956047 C129.957713,19.4913235 130.926949,18.5616608 131.871483,18.0058921 C132.816016,17.4508479 133.675542,17.1726013 134.450785,17.1726013 C135.152646,17.1726013 135.691757,17.3718665 136.067391,17.7703968 C136.442298,18.1689272 136.630478,18.7551292 136.630478,19.5275535 C136.630478,19.9869503 136.49679,20.8564711 136.230868,22.1361159 C136.230868,22.1361159 135.316973,24.2197776 136.067391,25.1069787 C136.348449,25.4392673 136.75786,25.3399209 137.160051,25.1007929 Z M67.3882616,12.1003965 C67.3882616,11.2547876 67.721028,10.5490265 68.3872873,9.9816642 C69.0535466,9.4135772 69.8825563,9.1295338 70.8757695,9.1295338 C71.7716231,9.1295338 72.4981872,9.3476386 73.0554619,9.7816744 C73.6127366,10.2164348 73.8910107,10.8323454 73.8910107,11.6294061 C73.8910107,12.5960234 73.5764084,13.3633755 72.9464773,13.9300133 C72.3165462,14.4981002 71.4809974,14.7821437 70.439831,14.7821437 C69.4226412,14.7821437 68.6597489,14.5459238 68.151154,14.0749334 C67.6425591,13.6046676 67.3882616,12.9460055 67.3882616,12.1003965 Z M99.319738,26.5024147 C99.755677,25.3792836 99.973646,24.2018075 99.973646,22.9699864 C99.973646,22.2453857 99.828333,21.6961384 99.537708,21.3207952 C99.247082,20.9469013 98.859823,20.7599543 98.375205,20.7599543 C97.503328,20.7599543 96.44981,21.6772988 95.214651,23.5134369 C95.189948,24.5757015 95.178323,26.1343175 95.178323,28.1871113 C95.178323,29.2979241 95.165971,30.1558513 95.141995,30.7594437 C96.013871,30.5659753 96.818905,30.089188 97.55782,29.3276327 C98.296736,28.566802 98.8838,27.6248211 99.319738,26.5024147 Z M90.673625,32.208645 C89.631732,34.6237391 88.808535,36.930143 88.203307,39.1278569 C87.598079,41.3262953 87.295102,43.1733025 87.295102,44.6717767 C87.295102,45.444201 87.385922,46.0361997 87.567563,46.4463237 C87.749204,46.8564477 87.961361,47.0629589 88.203307,47.0629589 C88.857215,47.0629589 89.402138,45.6434662 89.838076,42.8059299 C90.274015,39.9676691 90.552289,36.4352408 90.673625,32.208645 Z M111.452923,26.0491045 L111.452923,26.1215646 C112.881349,25.7839007 114.007523,25.2766802 114.831447,24.5999031 C115.654644,23.9245753 116.066606,23.1391082 116.066606,22.2449509 C116.066606,21.7862787 115.939457,21.4181816 115.68516,21.1399349 C115.430862,20.8624129 115.085744,20.7232895 114.649806,20.7232895 C113.753226,20.7232895 112.996872,21.2428282 112.379293,22.281181 C111.761713,23.3202584 111.452923,24.5759913 111.452923,26.0491045 Z M38.470355,12.8618069 C38.470355,15.2283528 39.2339739,16.978988 40.7597586,18.1144372 C41.704292,15.4095029 42.1765587,13.175559 42.1765587,11.411881 C42.1765587,10.3981646 42.0435975,9.6547243 41.7769484,9.1837339 C41.511026,8.7127435 41.1470173,8.4779728 40.6871022,8.4779728 C40.0339211,8.4779728 39.500623,8.8583882 39.0886611,9.6184943 C38.6774258,10.379325 38.470355,11.4611538 38.470355,12.8618069 Z M23.086086,11.8850452 C23.086086,14.0371092 23.272813,16.2022161 23.6455404,18.3810903 C24.6583708,15.7515144 25.1640594,13.2009201 25.1640594,10.7293071 C25.1640594,10.1981748 25.0775983,9.7199384 24.9039494,9.2945978 C24.7310272,8.8699818 24.4709172,8.6569492 24.1250727,8.6569492 C23.4319305,8.6569492 23.086086,9.7329812 23.086086,11.8850452 Z"></path>
        </g>
    </g>
</svg>