<?xml version="1.0" encoding="UTF-8"?>
<svg width="148px" height="51px" viewBox="0 0 148 51" version="1.1" xmlns="http://www.w3.org/2000/svg" xmlns:xlink="http://www.w3.org/1999/xlink">
    <!-- Generator: Sketch 44.1 (41455) - http://www.bohemiancoding.com/sketch -->
    <title>logo</title>
    <desc>Created with Sketch.</desc>
    <defs></defs>
    <g id="Page-1" stroke="none" stroke-width="1" fill="none" fill-rule="evenodd">
        <g id="Whipers---Home" transform="translate(-157.000000, -15.000000)" fill="#FFFFFF">
            <g id="header" transform="translate(135.000000, 0.000000)">
                <path d="M75.8196037,25.4878702 C75.3226338,27.602255 74.917211,29.9028621 74.6026088,32.3904163 C76.1044168,30.6274628 77.3453884,28.707271 78.32625,26.6291163 C79.3071116,24.5524107 79.7975424,22.6691736 79.7975424,20.9779556 C79.7975424,20.2048067 79.7125344,19.6135325 79.5432449,19.2019593 C79.3739555,18.7918353 79.131283,18.5867734 78.8166808,18.5867734 C78.3807423,18.5867734 77.896124,19.2084807 77.3635525,20.4526201 C76.830981,21.6967595 76.315847,23.3749346 75.8196037,25.4878702 Z M159.160051,40.1007929 C160.145752,39.1958418 160.844683,38.2699197 161.256843,37.3230266 C162.520706,34.4194431 162.243691,35.1453469 162.936222,33.5552813 C163.374825,32.5413265 164.286643,32.0343566 165.671705,32.0343566 C166.318067,32.0343566 166.768205,32.0919668 167.022133,32.207189 C167.276061,32.3224111 167.403023,32.5067638 167.403023,32.7602525 C167.403023,32.8985191 167.356855,33.1174379 167.264517,33.4170154 C167.17218,33.716593 167.045218,34.0161661 166.883627,34.3157437 C166.468109,35.1453431 166.260353,35.8481877 166.260353,36.4242984 C166.260353,36.7699648 166.381544,37.1501922 166.62393,37.5649919 C166.811514,37.8860097 167.078596,38.2691325 167.425179,38.7143676 C167.52643,38.8444384 167.634465,38.9798101 167.749286,39.1204831 C168.487986,40.0883491 169.047773,40.9121751 169.428665,41.5919857 C169.809557,42.2717964 170,43.014968 170,43.821523 C170,44.7893891 169.774931,45.7053914 169.324786,46.5695574 C168.874641,47.4337235 168.245602,48.130807 167.437649,48.6608289 C166.629697,49.1908508 165.706336,49.4558577 164.66754,49.4558577 C163.467154,49.4558577 162.549564,49.1793287 161.914744,48.6262624 C161.279924,48.0731961 160.962519,47.4510059 160.962519,46.759673 C160.962519,46.1605179 161.181817,45.642026 161.62042,45.2041819 C162.059023,44.7663377 162.705375,44.5474189 163.559497,44.5474189 C163.859593,44.5474189 164.211624,44.576224 164.615601,44.6338351 C165.019577,44.6914462 165.32544,44.7317733 165.533199,44.7548177 C165.510115,44.1556626 165.377382,43.5910826 165.134996,43.0610607 C164.89261,42.5310388 164.586747,42.018308 164.217397,41.5228528 C163.848048,41.0273975 163.501788,40.595321 163.178607,40.2266101 C162.462991,41.5862314 161.635277,42.3519563 159.992981,43.0610607 C158.47797,43.7152065 155.347945,43.3309286 155.125576,42.9598883 C154.930548,42.8489482 154.748672,42.7071268 154.579883,42.534391 C154.107616,42.0518069 153.871483,41.3996663 153.871483,40.5779691 C153.871483,40.1192969 153.895459,39.6243947 153.944139,39.0925378 C153.992092,38.7063256 154.016796,38.4403971 154.016796,38.295477 C154.016796,38.1027332 153.973928,37.9578131 153.889647,37.8607166 C153.804639,37.7643447 153.701467,37.7157965 153.580857,37.7157965 C153.241552,37.7157965 152.781637,38.1208482 152.200385,38.9295026 C151.619134,39.7388816 151.037883,40.8076676 150.456631,42.1358606 C149.87538,43.4647782 149.403113,44.8654313 149.039831,46.3385445 C148.773182,47.4979056 148.470205,48.2710545 148.131626,48.6572667 C147.792321,49.0442035 147.235046,49.2369472 146.460529,49.2369472 C145.539972,49.2369472 144.891877,48.7543632 144.51697,47.7877459 C144.393981,47.4714958 144.291165,47.0931026 144.208497,46.6525411 C143.649934,47.0703197 143.025528,47.4729593 142.33517,47.8603509 C140.700401,48.7784199 138.950834,49.2370922 137.085744,49.2370922 C134.54277,49.2370922 132.568695,48.5487215 131.164246,47.1719802 C130.909937,46.9228168 130.678664,46.6570398 130.470419,46.3746494 C129.837425,46.9928516 129.178895,47.5363404 128.494559,48.0049812 C127.295728,48.8266783 125.933421,49.2368023 124.407636,49.2368023 C123.123797,49.2368023 122.082631,48.7788547 121.28341,47.860061 C119.902938,48.7542183 118.461435,49.2128905 116.960353,49.2368023 C116.645025,53.8981585 115.930812,57.7928871 114.816989,60.9209882 C113.70244,64.0490894 112.067671,65.6127776 109.912681,65.6127776 C108.604866,65.6127776 107.636356,65.1425118 107.006425,64.2005309 C106.376494,63.2578254 106.061891,61.9535442 106.061891,60.2869626 C106.061891,57.9196922 106.606815,55.1604128 107.696661,52.0091245 C108.082409,50.89322 108.542433,49.7373735 109.076796,48.5415207 C108.392209,48.6914039 107.64178,48.7785606 106.82551,48.8026216 C105.856274,49.6235942 104.706123,50.0337181 103.374331,50.0337181 C102.114468,50.0337181 101.152498,49.7446025 100.486238,49.1649219 C99.8199789,48.5845168 99.4872125,47.9331008 99.4872125,47.2085001 C99.4872125,46.5809959 99.7168068,46.0375454 100.177448,45.5781486 C100.637364,45.1194763 101.315248,44.8897779 102.211828,44.8897779 C102.52643,44.8897779 102.895525,44.9202112 103.319838,44.980353 C103.743425,45.0412195 104.064567,45.0832463 104.282536,45.1064335 C104.257833,44.4789293 104.119059,43.8876552 103.864761,43.3311619 C103.610464,42.7768424 103.289323,42.2384641 102.902064,41.71965 C102.514805,41.2001113 102.151523,40.7472359 101.812218,40.3610237 C101.061677,41.7855886 100.316222,42.9688615 99.578033,43.911567 C99.4435145,44.0830532 99.3068048,44.2529304 99.1678995,44.4211987 C99.0825029,44.5783583 98.983174,44.7223261 98.8699236,44.8531131 C96.472262,47.7761523 94.2322647,49.2369472 92.1492054,49.2369472 C90.5747409,49.2369472 89.4304024,48.6819031 88.7161898,47.5703657 C88.5275768,47.2770163 88.3638433,46.9583998 88.225003,46.6145026 C87.6573571,47.1345456 87.0822997,47.5981079 86.5000965,48.0048362 C85.3252423,48.8265334 83.9876377,49.237382 82.4858297,49.237382 C81.2506706,49.237382 80.3177623,48.8808785 79.6885577,48.168596 C79.0586266,47.4563135 78.7440244,46.4237576 78.7440244,45.0709281 C78.7440244,44.3948757 78.9133138,43.1869663 79.2526193,41.4479247 C79.5672215,39.9262633 79.7248859,38.8755923 79.7248859,38.2959118 C79.7248859,37.9096996 79.5911981,37.7155066 79.3252757,37.7155066 C79.0106734,37.7155066 78.5623833,38.1205584 77.981132,38.9299374 C77.3998807,39.7393163 76.8186294,40.8081023 76.2373781,42.1362954 C75.6561268,43.4644884 75.1838601,44.8651415 74.820578,46.3389793 C74.3606629,48.2714893 73.2221369,49.237382 71.4057266,49.237382 C70.6791624,49.237382 70.2010832,48.977975 69.9707624,48.4577117 C69.7404416,47.9396222 69.6256444,47.0034381 69.6256444,45.649884 C69.6256444,44.8774597 69.637996,44.2615491 69.6619726,43.8028769 L69.6983008,40.9044742 C69.6983008,40.1859407 69.7125368,39.4615388 69.7410088,38.7312687 C68.3959086,38.7179441 67.152127,38.616352 66.0093911,38.4264923 C63.7370866,42.8497727 58.3393132,49.6157685 51.1056076,49.6157685 C48.249251,49.6157685 45.9228902,47.7217488 44.1273284,43.9337094 C41.1240183,47.7217488 37.708757,49.6157685 33.8807412,49.6157685 C31.2604736,49.6157685 29.1766262,48.9630725 27.6308048,47.6560788 C26.0849835,46.349085 25.3124743,44.2860852 25.3124743,41.4670791 C25.3124743,40.7919592 25.6874866,39.0076565 26.4383141,36.1157728 C27.1891416,33.2230882 27.7857885,30.8445518 28.2274517,28.9801637 C28.669918,27.1149748 28.8899466,25.6390009 28.8899466,24.5530429 C28.8899466,22.1745065 28.2860725,20.9852383 27.0799303,20.9852383 C26.6671759,20.9852383 26.2921637,21.1029639 25.9532875,21.3376141 C25.6144114,21.5730652 25.2755352,21.8221308 24.9374621,22.0864126 C24.5985859,22.3514953 24.2524825,22.6005608 23.899955,22.8360119 C23.5458213,23.0698613 23.1410972,23.1883877 22.6849795,23.1883877 C22.2280588,23.1883877 22,22.7919649 22,21.9983186 C22,20.383797 22.7516305,19.0615871 24.2524825,18.0348923 C25.6947138,16.9769641 27.4324579,16.4492014 29.4641088,16.4492014 C31.4965627,16.4492014 32.2563961,17.1683682 33.1983434,18.606702 C33.9636253,19.7519232 34.3466678,21.3079825 34.3466678,23.2756808 C34.3466678,24.1269885 34.1844569,25.2281628 33.8608382,26.5792035 C32.1825179,33.5682562 30.6015362,39.1380235 30.5726273,41.839304 C30.6015362,43.1310815 31.1467895,44.0128218 32.2067813,44.4829231 C32.6187326,44.6583101 33.1045622,44.746404 33.66427,44.746404 C36.2845375,44.746404 40.211783,42.4801594 42.5373407,39.3968716 C41.3601074,35.286088 40.7706878,30.6171093 40.7706878,25.3899353 C40.7706878,23.4518686 41.2348357,21.8733854 42.1623285,20.6552865 C43.0890183,19.4363867 44.5987035,18.8269368 46.6889752,18.8269368 C48.249251,18.8269368 49.4345145,19.2682074 50.2439628,20.1483459 C51.053411,21.0292853 51.4589382,22.1889219 51.4589382,23.6280565 C51.4589382,26.5944197 50.6783988,30.2503182 49.118123,34.5957519 C48.5881271,36.0637173 47.9697986,37.5172673 47.2631374,38.9564019 C48.5295064,42.3624339 50.2070237,44.0658503 52.2980983,44.0658503 C54.3595711,44.0658503 57.4262487,42.8510847 59.3438219,40.4215535 C60.0180626,39.3071676 60.6602227,38.07947 61.2703021,36.7381652 C59.7931973,35.8193716 58.6786479,34.6303019 57.9273805,33.1695069 C57.1768398,31.7072627 56.8019327,30.0225662 56.8019327,28.1154172 C56.8019327,26.206819 57.0983709,24.5945825 57.6919738,23.2787077 C58.2855767,21.9613836 59.0971488,20.9773759 60.1259636,20.3252353 C61.155505,19.6730947 62.2998435,19.3470244 63.5589792,19.3470244 C65.1087405,19.3470244 66.338087,19.9027931 67.2462922,21.0136059 C68.1544974,22.1251434 68.6085999,23.6460802 68.6085999,25.5793148 C68.6085999,28.308161 68.014997,31.3398902 66.8285178,34.6723287 C67.763266,34.8373869 68.8228498,34.9393659 70.0072693,34.9792079 C70.1976989,33.1139692 70.4761556,31.2124444 70.8426394,29.2746333 C71.6055317,25.2407814 72.7317061,21.8539978 74.2211626,19.1113842 C75.7106191,16.3709445 77.4965137,15 79.5795731,15 C80.6933959,15 81.5957886,15.4767872 82.2860245,16.4303617 C82.9762605,17.3853854 83.3213784,18.6230034 83.3213784,20.1439402 C83.3213784,22.5836707 82.6071659,25.1147009 81.1780142,27.7348569 C79.7488626,30.3557375 77.4238573,33.4171754 74.2029985,36.9191705 C74.1303421,38.1749035 74.0940139,39.4675911 74.0940139,40.7950595 C74.8932344,38.7429904 75.7832755,37.070612 76.7641371,35.7771998 C77.7449987,34.4859614 78.7135087,33.5620955 79.6703936,33.0056022 C80.6272786,32.4512827 81.5049681,32.173036 82.3041886,32.173036 C83.8786531,32.173036 84.6655221,32.9577786 84.6655221,34.5279882 C84.6655221,35.4699691 84.398873,37.1720561 83.8663015,39.636423 C83.4056599,41.737765 83.1760656,43.1268245 83.1760656,43.8028769 C83.1760656,44.7694942 83.5269961,45.2520783 84.2295836,45.2520783 C84.7142019,45.2520783 85.2889141,44.9557166 85.9551734,44.3644424 C86.415119,43.9562622 86.9817121,43.3719674 87.6549527,42.6120348 C87.6920553,41.6149282 87.8279763,40.3994941 88.0622821,38.9657326 C88.3405561,37.262921 88.6980257,35.6745964 89.1339642,34.2014832 C89.3519334,33.4290589 89.6425591,32.897202 90.0058412,32.6073617 C90.3691232,32.318246 90.9503745,32.1726013 91.7495951,32.1726013 C92.9847541,32.1726013 93.6023336,32.5841745 93.6023336,33.405147 C93.6023336,34.0087394 93.3720128,35.4093925 92.9120977,37.6071064 C92.3308464,40.264217 92.0402207,42.0634005 92.0402207,43.006106 C92.0402207,43.7307067 92.1368538,44.2857508 92.3308464,44.671963 C92.524839,45.0588997 92.8517929,45.2516435 93.311708,45.2516435 C93.7476465,45.2516435 94.2925696,44.9502096 94.9464773,44.3458927 C95.135526,44.1713905 95.342793,43.9675754 95.5682784,43.734465 C96.8438389,42.1561866 97.811531,40.849449 98.4700227,39.8175732 C98.8819846,39.1168843 99.3658763,38.1814249 99.923151,37.0097456 C100.479699,35.8380663 101.024622,34.6250847 101.55792,33.3679026 C102.017835,32.305638 102.97472,31.7745057 104.427849,31.7745057 C105.105733,31.7745057 105.578,31.8346475 105.844649,31.9556558 C106.110571,32.0766642 106.244259,32.2701325 106.244259,32.5353364 C106.244259,32.6802565 106.195579,32.9092303 106.098946,33.223707 C106.001587,33.5381837 105.868625,33.8519358 105.699336,34.1656879 C105.263397,35.0352087 105.045428,35.7721276 105.045428,36.37572 C105.045428,36.7380203 105.172577,37.1358261 105.426874,37.5713111 C105.681172,38.0060715 106.074243,38.549522 106.607541,39.2016626 C107.382058,40.215379 107.969849,41.0798276 108.369459,41.7913854 C108.769069,42.5051171 108.968875,43.2833382 108.968875,44.1289472 C108.968875,44.3702392 108.944171,44.7086278 108.896218,45.1426636 C109.862216,44.7692257 110.964994,43.8914518 112.204161,42.5089509 C112.380961,42.2057353 112.561668,41.9004151 112.746281,41.5929898 C112.746281,38.0663583 112.721578,35.6150342 112.673625,34.2375683 C112.648922,33.537604 112.927923,32.9825599 113.509174,32.5709867 C114.090425,32.1608628 114.816989,31.9558008 115.688866,31.9558008 C116.197461,31.9558008 116.566556,32.0579695 116.796877,32.2637561 C117.027197,32.468818 117.15362,32.8731452 117.178323,33.4767376 C117.178323,34.0810546 117.189948,34.5281332 117.214651,34.8172488 C117.989168,33.8520807 118.752787,33.1571887 119.503328,32.7340219 C120.253869,32.3123043 121.053089,32.0999963 121.90099,32.0999963 C123.256758,32.0999963 124.364769,32.6434468 125.225021,33.7303478 C126.084546,34.8172488 126.514672,36.243263 126.514672,38.0054918 C126.514672,39.2865858 126.309054,40.5300006 125.897092,41.7379099 C125.485131,42.9458192 124.916231,44.0443139 124.189667,45.034843 C124.698262,45.1797631 125.121848,45.2514986 125.461154,45.2514986 C126.260374,45.2514986 127.023267,44.9616583 127.749831,44.3819778 C128.156263,44.0577107 128.627036,43.6125916 129.162278,43.0464935 C129.092228,42.5630001 129.05721,42.0542006 129.05721,41.5200949 C129.05721,39.8535134 129.408141,38.3014187 130.110728,36.8645356 C130.812589,35.4276524 131.787638,34.2864064 133.035149,33.4407974 C134.281933,32.5951884 135.692921,32.1727462 137.267385,32.1727462 C138.671834,32.1727462 139.798008,32.5893916 140.645908,33.4226824 C141.493809,34.2559732 141.917396,35.3856256 141.917396,36.8101905 C141.917396,38.4767721 141.31798,39.9078584 140.119149,41.1034496 C138.920319,42.2990407 136.891752,43.2468184 134.034175,43.9475072 C134.639403,45.05832 135.789554,45.6140888 137.485354,45.6140888 C138.575201,45.6140888 139.816172,45.2336734 141.208996,44.4728427 C142.22658,43.9166968 143.144391,43.234721 143.961864,42.4269154 C144.025562,39.5515565 144.470569,36.8095559 145.298026,34.2014832 C145.515995,33.5015189 145.872738,32.987777 146.369708,32.6617067 C146.865951,32.3356364 147.562,32.1726013 148.45858,32.1726013 C148.942472,32.1726013 149.281051,32.2334677 149.47577,32.3537515 C149.669036,32.4747598 149.766395,32.7044582 149.766395,33.0421221 C149.766395,33.4290589 149.584754,34.2985797 149.221472,35.6506845 C148.9788,36.6173018 148.785534,37.4621862 148.640221,38.1867869 C148.494908,38.9113876 148.372845,39.8055448 148.276939,40.8678094 C149.076159,38.7911039 149.972013,37.0998859 150.965226,35.7956047 C151.957713,34.4913235 152.926949,33.5616608 153.871483,33.0058921 C154.816016,32.4508479 155.675542,32.1726013 156.450785,32.1726013 C157.152646,32.1726013 157.691757,32.3718665 158.067391,32.7703968 C158.442298,33.1689272 158.630478,33.7551292 158.630478,34.5275535 C158.630478,34.9869503 158.49679,35.8564711 158.230868,37.1361159 C158.230868,37.1361159 157.316973,39.2197776 158.067391,40.1069787 C158.348449,40.4392673 158.75786,40.3399209 159.160051,40.1007929 Z M89.3882616,27.1003965 C89.3882616,26.2547876 89.721028,25.5490265 90.3872873,24.9816642 C91.0535466,24.4135772 91.8825563,24.1295338 92.8757695,24.1295338 C93.7716231,24.1295338 94.4981872,24.3476386 95.0554619,24.7816744 C95.6127366,25.2164348 95.8910107,25.8323454 95.8910107,26.6294061 C95.8910107,27.5960234 95.5764084,28.3633755 94.9464773,28.9300133 C94.3165462,29.4981002 93.4809974,29.7821437 92.439831,29.7821437 C91.4226412,29.7821437 90.6597489,29.5459238 90.151154,29.0749334 C89.6425591,28.6046676 89.3882616,27.9460055 89.3882616,27.1003965 Z M121.319738,41.5024147 C121.755677,40.3792836 121.973646,39.2018075 121.973646,37.9699864 C121.973646,37.2453857 121.828333,36.6961384 121.537708,36.3207952 C121.247082,35.9469013 120.859823,35.7599543 120.375205,35.7599543 C119.503328,35.7599543 118.44981,36.6772988 117.214651,38.5134369 C117.189948,39.5757015 117.178323,41.1343175 117.178323,43.1871113 C117.178323,44.2979241 117.165971,45.1558513 117.141995,45.7594437 C118.013871,45.5659753 118.818905,45.089188 119.55782,44.3276327 C120.296736,43.566802 120.8838,42.6248211 121.319738,41.5024147 Z M112.673625,47.208645 C111.631732,49.6237391 110.808535,51.930143 110.203307,54.1278569 C109.598079,56.3262953 109.295102,58.1733025 109.295102,59.6717767 C109.295102,60.444201 109.385922,61.0361997 109.567563,61.4463237 C109.749204,61.8564477 109.961361,62.0629589 110.203307,62.0629589 C110.857215,62.0629589 111.402138,60.6434662 111.838076,57.8059299 C112.274015,54.9676691 112.552289,51.4352408 112.673625,47.208645 Z M133.452923,41.0491045 L133.452923,41.1215646 C134.881349,40.7839007 136.007523,40.2766802 136.831447,39.5999031 C137.654644,38.9245753 138.066606,38.1391082 138.066606,37.2449509 C138.066606,36.7862787 137.939457,36.4181816 137.68516,36.1399349 C137.430862,35.8624129 137.085744,35.7232895 136.649806,35.7232895 C135.753226,35.7232895 134.996872,36.2428282 134.379293,37.281181 C133.761713,38.3202584 133.452923,39.5759913 133.452923,41.0491045 Z M60.470355,27.8618069 C60.470355,30.2283528 61.2339739,31.978988 62.7597586,33.1144372 C63.704292,30.4095029 64.1765587,28.175559 64.1765587,26.411881 C64.1765587,25.3981646 64.0435975,24.6547243 63.7769484,24.1837339 C63.511026,23.7127435 63.1470173,23.4779728 62.6871022,23.4779728 C62.0339211,23.4779728 61.500623,23.8583882 61.0886611,24.6184943 C60.6774258,25.379325 60.470355,26.4611538 60.470355,27.8618069 Z M45.086086,26.8850452 C45.086086,29.0371092 45.272813,31.2022161 45.6455404,33.3810903 C46.6583708,30.7515144 47.1640594,28.2009201 47.1640594,25.7293071 C47.1640594,25.1981748 47.0775983,24.7199384 46.9039494,24.2945978 C46.7310272,23.8699818 46.4709172,23.6569492 46.1250727,23.6569492 C45.4319305,23.6569492 45.086086,24.7329812 45.086086,26.8850452 Z" id="logo"></path>
            </g>
        </g>
    </g>
</svg>