<?xml version="1.0" encoding="UTF-8"?>
<svg width="42px" height="42px" viewBox="0 0 42 42" version="1.1" xmlns="http://www.w3.org/2000/svg" xmlns:xlink="http://www.w3.org/1999/xlink">
    <!-- Generator: Sketch 45.2 (43514) - http://www.bohemiancoding.com/sketch -->
    <title>rosecoin</title>
    <desc>Created with Sketch.</desc>
    <defs>
        <linearGradient x1="14.3222953%" y1="16.7351991%" x2="78.5856008%" y2="89.8020213%" id="linearGradient-1">
            <stop stop-color="#FB167F" offset="0%"></stop>
            <stop stop-color="#FF4958" offset="100%"></stop>
        </linearGradient>
        <linearGradient x1="50%" y1="0%" x2="50%" y2="100%" id="linearGradient-2">
            <stop stop-color="#FF6969" offset="0%"></stop>
            <stop stop-color="#D3394A" offset="100%"></stop>
        </linearGradient>
        <linearGradient x1="13.9138297%" y1="8.31608149%" x2="84.7611938%" y2="90.6994421%" id="linearGradient-3">
            <stop stop-color="#FB167F" offset="0%"></stop>
            <stop stop-color="#FF4958" offset="100%"></stop>
        </linearGradient>
        <circle id="path-4" cx="14.9190434" cy="14.9190434" r="14.9190434"></circle>
        <circle id="path-6" cx="16.4272941" cy="15.9030591" r="14.9190434"></circle>
        <linearGradient x1="14.3222953%" y1="16.7351991%" x2="78.5856008%" y2="89.8020213%" id="linearGradient-7">
            <stop stop-color="#FFFFFF" offset="0%"></stop>
            <stop stop-color="#FFD8DB" offset="100%"></stop>
        </linearGradient>
        <path d="M19.4117431,10.9589041 L17.6730548,13.9424952 L19.9686713,16.1539067 L22.2929587,14.1360889 L20.184866,12.4605149 L18.6229428,13.5564054 L20.184866,10.9589041 L24.355591,13.9424952 C21.6643924,16.3211617 20.3417816,18.0996709 20.3877585,19.2780228 C20.4337354,20.4563746 20.4337354,23.4273336 20.3877585,28.1908996 L19.9686713,28.8647123 L19.5294369,28.1908996 L19.5294369,19.2780228 C19.5679234,18.3835752 19.1245439,17.4376867 18.1992983,16.4403573 C17.2740526,15.4430279 16.4565113,14.6104072 15.7466742,13.9424952 L19.4117431,10.9589041 Z M19.1277929,14.2048 L20.0890942,13.3182727 L21.0408296,14.2048 L20.0843113,15.2302731 L19.1277929,14.2048 Z M25.4331521,14.8577564 C25.5278979,14.804182 23.8089505,20.5698316 23.610595,22.8467671 C23.478358,24.3647241 22.8369926,25.5605145 21.6864989,26.4341383 C21.5886824,22.0054629 21.6646265,19.3337962 21.9143314,18.4191381 C22.2888886,17.0471511 25.3384063,14.9113307 25.4331521,14.8577564 Z M26.1825393,15.9866644 L28.766128,18.0409338 L24.5296101,23.1895479 L26.1825393,15.9866644 Z M14.4556593,14.8577564 C14.5504051,14.9113307 17.5999228,17.0471511 17.9744801,18.4191381 C18.2241849,19.3337962 18.3001291,22.0054629 18.2023126,26.4341383 C17.0518188,25.5605145 16.4104534,24.3647241 16.2782164,22.8467671 C16.0798609,20.5698316 14.3609135,14.804182 14.4556593,14.8577564 Z M13.8164654,15.9866644 L15.4693945,23.1895479 L11.2328767,18.0409338 L13.8164654,15.9866644 Z" id="path-8"></path>
        <filter x="0.0%" y="0.0%" width="100.0%" height="100.0%" filterUnits="objectBoundingBox" id="filter-9">
            <feOffset dx="0" dy="0" in="SourceAlpha" result="shadowOffsetOuter1"></feOffset>
            <feColorMatrix values="0 0 0 0 0.600791879   0 0 0 0 0.0760827626   0 0 0 0 0.170786359  0 0 0 1 0" type="matrix" in="shadowOffsetOuter1"></feColorMatrix>
        </filter>
    </defs>
    <g id="Page-1" stroke="none" stroke-width="1" fill="none" fill-rule="evenodd">
        <g id="rosecoin" transform="translate(1.000000, 1.000000)">
            <circle id="Oval" stroke="url(#linearGradient-2)" stroke-width="0.5" fill="url(#linearGradient-1)" cx="20" cy="20" r="20"></circle>
            <path d="M19.7350894,3.90060652 L19.7350894,1.09589041 L21.1906189,1.09589041 L21.1906189,3.90060652 L19.7350894,3.90060652 Z M19.7350894,38.7117372 L19.7350894,35.9070211 L21.1906189,35.9070211 L21.1906189,38.7117372 L19.7350894,38.7117372 Z M14.3860686,5.01763631 L13.2819596,2.38205231 L14.1742193,2.09993346 L15.2782392,4.73551746 L14.3860686,5.01763631 Z M26.375588,37.7055288 L25.2715681,35.0700221 L26.1638277,34.7879033 L27.2678477,37.4234099 L26.375588,37.7055288 Z M9.47561592,7.87207896 L7.65775382,5.72370679 L8.29492571,5.19341925 L10.1127878,7.34186875 L9.47561592,7.87207896 Z M31.9515407,34.5506388 L30.1336786,32.4022667 L30.7707725,31.8720564 L32.5887126,34.0204286 L31.9515407,34.5506388 Z M5.96442525,12.2214112 L3.51531771,10.8190919 L3.9311833,10.1047465 L6.38029084,11.5070659 L5.96442525,12.2214112 Z M36.3045219,29.6591867 L33.8554143,28.2568673 L34.2712799,27.5424446 L36.7203875,28.9448414 L36.3045219,29.6591867 Z M4.15623263,18.2397147 L1.37118867,17.4974734 L1.515685,16.2599333 L4.30072896,17.0020568 L4.15623263,18.2397147 Z M38.7078553,24.2111531 L35.9227334,23.4689118 L36.0672297,22.2313717 L38.8523517,22.9734952 L38.7078553,24.2111531 Z M4.29940331,23.4896008 L1.51435934,24.2317242 L1.36986301,22.9941841 L4.15490698,22.2519428 L4.29940331,23.4896008 Z M38.8460353,17.513213 L36.0609134,18.2553364 L35.916417,17.0177963 L38.701539,16.275555 L38.8460353,17.513213 Z M6.37943307,28.298087 L3.93032553,29.7004064 L3.51445994,28.986061 L5.96356748,27.5837416 L6.37943307,28.298087 Z M36.7121216,10.8603115 L34.2630141,12.2627083 L33.8470705,11.5482856 L36.296178,10.1459662 L36.7121216,10.8603115 Z M10.1144254,32.4663002 L8.29656329,34.6146724 L7.65946937,34.0844622 L9.47733147,31.9360127 L10.1144254,32.4663002 Z M32.5903501,5.78441493 L30.772488,7.9327871 L30.1353161,7.4025769 L31.9531782,5.25412739 L32.5903501,5.78441493 Z M15.2786291,35.0745849 L14.1745599,37.7101689 L13.2823495,37.42805 L14.3864187,34.792466 L15.2786291,35.0745849 Z M27.2682375,2.38251632 L26.1641684,5.01810032 L25.271958,4.73598147 L26.3760272,2.10039747 L27.2682375,2.38251632 Z" id="Combined-Shape" fill="#DB2342"></path>
            <g id="Oval-3" transform="translate(5.205479, 5.205479)">
                <mask id="mask-5" fill="white">
                    <use xlink:href="#path-4"></use>
                </mask>
                <g id="Mask">
                    <use fill="url(#linearGradient-3)" xlink:href="#path-4"></use>
                    <use fill-opacity="0.299394248" fill="#000000" xlink:href="#path-4"></use>
                </g>
                <g mask="url(#mask-5)">
                    <use fill="url(#linearGradient-3)" xlink:href="#path-6"></use>
                    <use fill-opacity="0.100000001" fill="#000000" xlink:href="#path-6"></use>
                </g>
            </g>
            <g id="Combined-Shape">
                <use fill="black" fill-opacity="1" filter="url(#filter-9)" xlink:href="#path-8"></use>
                <use fill="url(#linearGradient-7)" fill-rule="evenodd" xlink:href="#path-8"></use>
            </g>
        </g>
    </g>
</svg>