<?xml version="1.0" encoding="UTF-8"?>
<svg width="24px" height="24px" viewBox="0 0 24 24" version="1.1" xmlns="http://www.w3.org/2000/svg" xmlns:xlink="http://www.w3.org/1999/xlink">
    <!-- Generator: Sketch 45.2 (43514) - http://www.bohemiancoding.com/sketch -->
    <title>linkedin</title>
    <desc>Created with Sketch.</desc>
    <defs></defs>
    <g id="Page-1" stroke="none" stroke-width="1" fill="none" fill-rule="evenodd">
        <g id="Whipers---Home" transform="translate(-222.000000, -1980.000000)">
            <g id="team-section" transform="translate(135.000000, 1624.000000)">
                <g id="member" transform="translate(0.000000, 126.000000)">
                    <g id="Group-10" transform="translate(87.000000, 230.000000)">
                        <g id="linkedin">
                            <rect id="Rectangle-10" fill="#0077B5" x="0" y="0" width="24" height="24" rx="3.2"></rect>
                            <path d="M8.48027098,9.93892416 L8.48027098,18.1097799 L5.76080857,18.1097799 L5.76080857,9.93892416 L8.48027098,9.93892416 Z M8.65938164,7.41134885 C8.65938164,8.19590154 8.06882698,8.82367385 7.12059408,8.82367385 L7.10321525,8.82367385 C6.19022881,8.82367385 5.6,8.19590154 5.6,7.41134885 C5.6,6.61020162 6.20820505,6 7.13851601,6 C8.06882698,6 8.64173126,6.61020162 8.65938164,7.41134885 Z M18.2876928,13.4248609 L18.2875842,18.1097799 L15.5682304,18.1097799 L15.5682304,13.7383675 C15.5682304,12.6403625 15.1747083,11.8911138 14.1902514,11.8911138 C13.4389425,11.8911138 12.9914374,12.3962167 12.7948936,12.8840743 C12.7229886,13.0589135 12.7053382,13.3025169 12.7053382,13.5467169 L12.7053382,18.1099968 L9.98554997,18.1099968 C9.98554997,18.1099968 10.0213938,10.7058519 9.98554997,9.93914108 L12.7053382,9.93914108 L12.7053382,11.0964743 C13.066275,10.5401235 13.7127135,9.74705663 15.1565691,9.74705663 C16.9461008,9.74705663 18.2876928,10.9151274 18.2876928,13.4248609 Z" id="Shape" fill="#FFFFFF"></path>
                        </g>
                    </g>
                </g>
            </g>
        </g>
    </g>
</svg>