<?xml version="1.0" encoding="UTF-8"?>
<svg width="60px" height="60px" viewBox="0 0 60 60" version="1.1" xmlns="http://www.w3.org/2000/svg" xmlns:xlink="http://www.w3.org/1999/xlink">
    <!-- Generator: Sketch 45.2 (43514) - http://www.bohemiancoding.com/sketch -->
    <title>button home</title>
    <desc>Created with Sketch.</desc>
    <defs>
        <linearGradient x1="0%" y1="0%" x2="100%" y2="100%" id="linearGradient-1">
            <stop stop-color="#EC1E1E" offset="0%"></stop>
            <stop stop-color="#DB168C" offset="100%"></stop>
        </linearGradient>
    </defs>
    <g id="Page-1" stroke="none" stroke-width="1" fill="none" fill-rule="evenodd">
        <g id="feature-list" transform="translate(-865.000000, 0.000000)">
            <g id="Group-6" transform="translate(865.000000, 0.000000)">
                <g id="button-home">
                    <rect id="Rectangle" fill="url(#linearGradient-1)" x="0" y="-3.55271368e-15" width="60" height="60" rx="10"></rect>
                    <path d="M38.9094001,44.9995267 C38.816094,44.9995267 38.722788,44.9848799 38.6316518,44.9550436 L29.7274325,41.9567726 L20.8210433,44.9550436 C20.5541445,45.0440099 20.2617494,44.9995267 20.032824,44.8340712 C19.8060686,44.6691582 19.6726192,44.4038869 19.6769591,44.1223412 L19.7762324,34.7266377 L14.1713588,27.1824085 C14.0042759,26.9556531 13.955453,26.6632579 14.0422493,26.3963592 C14.1290456,26.1272905 14.3411542,25.9195218 14.6080529,25.8348953 L23.5757421,23.0270338 L29.0200423,15.3645446 C29.1827855,15.1356193 29.4458869,15 29.7274325,15 C30.0073507,15 30.2720795,15.1356193 30.4353651,15.3645446 L35.876953,23.0270338 L44.8446422,25.8348953 C45.1120834,25.9195218 45.3236495,26.1272905 45.4104458,26.3963592 C45.4972421,26.6632579 45.4511316,26.9556531 45.2813362,27.1824085 L39.6786326,34.7266377 L39.7784484,44.1223412 C39.7800758,44.4022594 39.6466265,44.6691582 39.419871,44.8340712 C39.2696049,44.9425666 39.0916724,44.9995267 38.9094001,44.9995267 Z" id="Fill-1" fill="#FFFFFF"></path>
                </g>
            </g>
        </g>
    </g>
</svg>