<?xml version="1.0" encoding="UTF-8"?>
<svg width="60px" height="60px" viewBox="0 0 60 60" version="1.1" xmlns="http://www.w3.org/2000/svg" xmlns:xlink="http://www.w3.org/1999/xlink">
    <!-- Generator: Sketch 45.2 (43514) - http://www.bohemiancoding.com/sketch -->
    <title>button home</title>
    <desc>Created with Sketch.</desc>
    <defs>
        <linearGradient x1="1.44424438%" y1="0%" x2="100%" y2="100%" id="linearGradient-1">
            <stop stop-color="#17EAD9" offset="0%"></stop>
            <stop stop-color="#6078EA" offset="100%"></stop>
        </linearGradient>
    </defs>
    <g id="Page-1" stroke="none" stroke-width="1" fill="none" fill-rule="evenodd">
        <g id="feature-list" transform="translate(-288.000000, 0.000000)">
            <g id="Group-6" transform="translate(288.000000, 0.000000)">
                <g id="button-home">
                    <rect id="Rectangle" fill="url(#linearGradient-1)" x="0" y="-3.55271368e-15" width="60" height="60" rx="10"></rect>
                    <path d="M33.2068013,44.0641575 C33.2068013,44.3365497 33.1173524,44.5612957 32.941601,44.7365976 C32.768097,44.912349 32.543351,45 32.2691608,45 L26.6437675,45 C26.3713753,45 26.1466293,44.912349 25.9695294,44.7365976 C25.793778,44.5612957 25.7061271,44.3365497 25.7061271,44.0641575 L25.7061271,38.4387642 C25.7061271,38.164574 25.793778,37.939828 25.9695294,37.7645261 C26.1466293,37.5887747 26.3713753,37.5011237 26.6437675,37.5011237 L32.2691608,37.5011237 C32.543351,37.5011237 32.768097,37.5887747 32.941601,37.7645261 C33.1173524,37.939828 33.2068013,38.164574 33.2068013,38.4387642 L33.2068013,44.0641575 Z M40.34069,26.7483743 C40.0966158,27.4716071 39.8228751,28.0631387 39.5190185,28.5216206 C39.2169598,28.9801025 38.7818515,29.4489227 38.2163905,29.9280813 C37.6509294,30.4054419 37.2014374,30.7479548 36.8679143,30.9533727 C36.5361891,31.1587906 36.0565811,31.4361272 35.4331356,31.78763 C34.7890134,32.1598094 34.2568148,32.6425639 33.8374387,33.2376914 C33.4176131,33.8346169 33.2068013,34.3178209 33.2068013,34.6882023 C33.2068013,34.961943 33.1191504,35.186689 32.943399,35.3624404 C32.768097,35.5377424 32.543351,35.6258428 32.2691608,35.6258428 L26.6437675,35.6258428 C26.3713753,35.6258428 26.1466293,35.5377424 25.9713274,35.3624404 C25.793778,35.186689 25.707925,34.961943 25.707925,34.6882023 L25.707925,33.6327949 C25.707925,32.324773 26.218548,31.0990081 27.244289,29.9559498 C28.2713783,28.8128914 29.3987045,27.9687453 30.6294138,27.4226124 C31.5670542,26.9924485 32.2305045,26.5532948 32.6206636,26.1038027 C33.0121712,25.6543106 33.2068013,25.0591831 33.2068013,24.3166222 C33.2068013,23.6720506 32.8400158,23.0962512 32.1077932,22.5869767 C31.3755706,22.0795002 30.5417628,21.8264361 29.6041223,21.8264361 C28.5873713,21.8264361 27.7481696,22.060172 27.0842698,22.5289922 C26.4383497,22.9978125 25.599148,23.8967966 24.5648667,25.2241467 C24.3873173,25.4596806 24.1432431,25.576998 23.8308461,25.576998 C23.5971103,25.576998 23.4110205,25.5172155 23.274375,25.4016961 L19.4078441,22.4710078 C18.9583521,22.1199545 18.8810394,21.7091187 19.1727598,21.2402985 C21.6728347,17.0806988 25.2970893,15 30.0428266,15 C31.7428056,15 33.4018809,15.4004974 35.0240978,16.2028408 C36.6449662,17.0015882 37.9970383,18.1361062 39.0821122,19.6001019 C40.1653881,21.0645471 40.707925,22.6570975 40.707925,24.3759552 C40.7061271,25.2349345 40.5829662,26.0264901 40.34069,26.7483743 Z" id="Combined-Shape" fill="#FFFFFF"></path>
                </g>
            </g>
        </g>
    </g>
</svg>