<?xml version="1.0" encoding="UTF-8"?>
<svg width="60px" height="60px" viewBox="0 0 60 60" version="1.1" xmlns="http://www.w3.org/2000/svg" xmlns:xlink="http://www.w3.org/1999/xlink">
    <!-- Generator: Sketch 45.2 (43514) - http://www.bohemiancoding.com/sketch -->
    <title>button home</title>
    <desc>Created with Sketch.</desc>
    <defs>
        <linearGradient x1="0%" y1="0%" x2="100%" y2="100%" id="linearGradient-1">
            <stop stop-color="#FBD960" offset="0%"></stop>
            <stop stop-color="#FA7A7A" offset="100%"></stop>
        </linearGradient>
    </defs>
    <g id="Page-1" stroke="none" stroke-width="1" fill="none" fill-rule="evenodd">
        <g id="feature-list" transform="translate(-577.000000, 0.000000)">
            <g id="Group-6" transform="translate(577.000000, 0.000000)">
                <g id="button-home">
                    <rect id="Rectangle" fill="url(#linearGradient-1)" x="0" y="-3.55271368e-15" width="60" height="60" rx="10"></rect>
                    <path d="M28.0199615,44 L33.2169497,44 L33.2169497,40.2440904 C37.0201366,39.3213098 39.3664857,36.6807915 39.3664857,33.1787778 C39.3664857,29.5874628 37.4578883,27.3917002 32.9910699,25.8263001 C31.3503765,25.2309578 29.4557871,24.4517598 29.4557871,23.746104 C29.4557871,22.8303274 30.7480301,22.6867449 31.5149711,22.6867449 C33.7650149,22.6867449 35.2008405,23.3766416 36.0623358,23.7951322 L37.0551567,24.266153 L37.3685869,23.220802 L38.5995447,18.5893889 L37.9166521,18.2619506 C36.9991245,17.836456 35.5422868,17.2971459 33.3885484,17.1115391 L33.3885484,14 L28.1898091,14 L28.1898091,17.4880056 C24.5792331,18.4247943 22.3554544,20.9830152 22.3554544,24.3344423 C22.3554544,28.6646822 26.0080546,30.4437051 29.187883,31.5170723 C31.8896866,32.4328489 32.266153,33.0894764 32.266153,33.6638067 C32.266153,34.513045 31.0351952,34.8965155 29.8252495,34.8965155 C27.4508843,34.8965155 25.4810016,34.0140081 24.5232008,33.486955 L23.4971108,32.9266328 L22,38.7802486 L22.6163544,39.116442 C24.0049028,39.888636 26.0483278,40.4296971 28.0199615,40.6065488 L28.0199615,44 Z" id="Fill-1" fill="#FFFFFF"></path>
                </g>
            </g>
        </g>
    </g>
</svg>