<?xml version="1.0" encoding="UTF-8"?>
<svg width="60px" height="60px" viewBox="0 0 60 60" version="1.1" xmlns="http://www.w3.org/2000/svg" xmlns:xlink="http://www.w3.org/1999/xlink">
    <!-- Generator: Sketch 46 (44423) - http://www.bohemiancoding.com/sketch -->
    <title>button home</title>
    <desc>Created with Sketch.</desc>
    <defs>
        <linearGradient x1="100%" y1="100%" x2="2.83276945e-14%" y2="-2.22044605e-14%" id="linearGradient-1">
            <stop stop-color="#3D1740" offset="0%"></stop>
            <stop stop-color="#4B3960" offset="34.8064985%"></stop>
            <stop stop-color="#65799B" offset="100%"></stop>
        </linearGradient>
    </defs>
    <g id="Page-1" stroke="none" stroke-width="1" fill="none" fill-rule="evenodd">
        <g id="Group-6">
            <g id="button-home">
                <rect id="Rectangle" fill="url(#linearGradient-1)" x="0" y="-3.55271368e-15" width="60" height="60" rx="10"></rect>
                <g id="wallet" transform="translate(16.000000, 13.000000)" fill="#FFFFFF">
                    <path d="M18.2135156,5.859375e-05 C20.3558789,5.859375e-05 22.0926562,1.73677734 22.0926562,3.87919922 C22.0926562,6.0215625 20.3558789,7.75833984 18.2135156,7.75833984 C16.0710937,7.75833984 14.334375,6.0215625 14.334375,3.87919922 C14.334375,1.73677734 16.0710937,5.859375e-05 18.2135156,5.859375e-05" id="Fill-1"></path>
                    <path d="M13.2420117,8.76990234 C13.261875,8.61076172 13.2733008,8.44892578 13.2733008,8.28427734 C13.2733008,6.14191406 11.536582,4.40513672 9.39416016,4.40513672 C7.25179688,4.40513672 5.51507812,6.14185547 5.51507812,8.28427734 C5.51507812,8.44880859 5.52650391,8.61064453 5.54636719,8.76990234 L13.2420117,8.76990234" id="Fill-2"></path>
                    <path d="M13.9167773,22.2438867 L13.9167773,18.3590039 C13.9167773,16.6388086 15.3162305,15.2393555 17.0364258,15.2393555 L25.3864453,15.2393555 L25.3864453,12.0308203 C25.3864453,11.2421484 24.7470703,10.6028906 23.9585156,10.6028906 L1.42792969,10.6028906 C0.639257813,10.6028906 0,11.2422656 0,12.0308203 L0,28.5720703 C0,29.3606836 0.639257813,30 1.42792969,30 L23.9585156,30 C24.7471289,30 25.3864453,29.3606836 25.3864453,28.5720703 L25.3864453,25.3635352 L17.0364258,25.3635352 C15.3162891,25.3635352 13.9167773,23.964082 13.9167773,22.2438867" id="Fill-3"></path>
                    <path d="M18.9717773,21.6745898 C18.213457,21.6745898 17.5986328,21.0598242 17.5986328,20.3014453 C17.5986328,19.5430664 18.213457,18.9283008 18.9717773,18.9283008 C19.7301562,18.9283008 20.3449219,19.5430664 20.3449219,20.3014453 C20.3449219,21.0598242 19.7301562,21.6745898 18.9717773,21.6745898 Z M26.2304883,17.1891797 L17.0364258,17.1891797 C16.3903125,17.1891797 15.8666016,17.7128906 15.8666016,18.3590039 L15.8666016,22.2438867 C15.8666016,22.89 16.3903125,23.4137109 17.0364258,23.4137109 L26.2304883,23.4137109 C26.8766016,23.4137109 27.4003711,22.89 27.4003711,22.2438867 L27.4003711,18.3590039 C27.4003711,17.7128906 26.876543,17.1891797 26.2304883,17.1891797 L26.2304883,17.1891797 Z" id="Fill-4"></path>
                </g>
            </g>
        </g>
    </g>
</svg>