<?xml version="1.0" encoding="UTF-8"?>
<svg width="60px" height="60px" viewBox="0 0 60 60" version="1.1" xmlns="http://www.w3.org/2000/svg" xmlns:xlink="http://www.w3.org/1999/xlink">
    <!-- Generator: Sketch 45.2 (43514) - http://www.bohemiancoding.com/sketch -->
    <title>button home</title>
    <desc>Created with Sketch.</desc>
    <defs>
        <linearGradient x1="0%" y1="0%" x2="100%" y2="100%" id="linearGradient-1">
            <stop stop-color="#43E695" offset="0%"></stop>
            <stop stop-color="#3BB2B8" offset="100%"></stop>
        </linearGradient>
    </defs>
    <g id="Page-1" stroke="none" stroke-width="1" fill="none" fill-rule="evenodd">
        <g id="feature-list">
            <g id="Group-6">
                <g id="button-home">
                    <rect id="Rectangle" fill="url(#linearGradient-1)" x="0" y="-3.55271368e-15" width="60" height="60" rx="10"></rect>
                    <g id="icon-profile" transform="translate(13.200000, 12.000000)">
                        <polygon id="Shape" points="0 0 34.6415094 0 34.6415094 34.8387097 0 34.8387097"></polygon>
                        <path d="M25.7000733,32 L9.16268708,32 C7.41672772,32 6,30.5834966 6,28.8366401 L6,18.6241795 C6,17.1009225 7.07852519,15.8288504 8.51252187,15.5292227 L8.51252187,10.9193068 C8.51252187,6.0010167 12.5135386,2 17.4318287,2 C22.3492218,2 26.3502385,6.0010167 26.3502385,10.9193068 L26.3502385,15.5292227 C27.7842352,15.8297475 28.8627603,17.1009225 28.8627603,18.6241795 L28.8627603,28.8366401 C28.8627603,30.5834966 27.4469297,32 25.7000733,32 Z M17.4308224,20.3284268 C15.893402,20.3284268 14.6473574,21.5375315 14.6473574,23.029107 C14.6473574,24.0293348 15.2093603,24.9009898 16.0424365,25.3678782 L16.0424365,28.3711592 L18.8201007,28.3711592 L18.8201007,25.3678782 C19.6531769,24.9009898 20.2154029,24.0293348 20.2154029,23.029107 C20.2154029,21.5375315 18.9691353,20.3284268 17.4308224,20.3284268 Z M17.7416268,6.71764899 C15.3526822,6.71764899 13.410014,8.59927805 13.410014,10.9122792 L13.410014,15.3790531 L22.0714181,15.3790531 L22.0714181,10.9122792 C22.0714181,8.59927805 20.1287498,6.71764899 17.7416268,6.71764899 Z" id="Combined-Shape" fill="#FFFFFF"></path>
                    </g>
                    <g id="padlock" transform="translate(19.000000, 15.000000)"></g>
                </g>
            </g>
        </g>
    </g>
</svg>